M48
; DRILL file {KiCad (6.0.4)} date Fri Mar 17 17:22:46 2023
; FORMAT={-:-/ absolute / metric / decimal}
; #@! TF.CreationDate,2023-03-17T17:22:46+08:00
; #@! TF.GenerationSoftware,Kicad,Pcbnew,(6.0.4)
; #@! TF.FileFunction,Plated,1,2,PTH
FMAT,2
METRIC
; #@! TA.AperFunction,Plated,PTH,ViaDrill
T1C0.300
; #@! TA.AperFunction,Plated,PTH,ComponentDrill
T2C0.600
%
G90
G05
T1
X104.8Y-124.8
X104.8Y-125.8
X104.8Y-126.8
X104.8Y-127.8
X105.8Y-124.8
X105.8Y-125.8
X105.8Y-126.8
X105.8Y-127.8
X106.7Y-118.5
X106.8Y-124.8
X106.8Y-125.8
X106.8Y-126.8
X106.8Y-127.8
X107.0Y-117.0
X107.386Y-133.787
X107.971Y-134.331
X109.0Y-117.0
X109.244Y-131.644
X109.4Y-118.5
X111.0Y-117.0
X111.3Y-133.7
X111.7Y-118.5
X113.5Y-117.0
X113.53Y-133.34
X114.5Y-118.5
X115.5Y-127.7
X116.0Y-117.0
X117.1Y-118.5
X118.5Y-117.0
X119.5Y-118.5
X120.0Y-124.2
X120.0Y-125.0
X120.0Y-125.8
X120.5Y-130.5
X120.6Y-117.0
X120.8Y-124.2
X120.8Y-125.0
X120.8Y-125.8
X121.1Y-137.7
X121.1Y-133.5
X121.2Y-129.6
X121.6Y-124.2
X121.6Y-125.0
X121.6Y-125.8
X121.849Y-128.52
X122.5Y-117.0
X122.5Y-118.5
X122.5Y-120.0
X122.5Y-121.5
X124.5Y-117.0
X124.5Y-118.5
X124.5Y-120.0
X124.5Y-121.5
X124.5Y-123.0
X125.3Y-125.45
X126.2Y-131.4
X127.0Y-117.0
X127.0Y-118.5
X128.7Y-139.6
X130.0Y-117.0
X130.0Y-118.6
X130.8Y-131.1
X131.5Y-135.32
X133.0Y-117.0
X133.0Y-118.7
X134.2Y-124.8
X134.2Y-125.8
X134.2Y-126.8
X134.2Y-127.8
X135.2Y-124.8
X135.2Y-125.8
X135.2Y-126.8
X135.2Y-127.8
X135.2Y-132.6
X136.2Y-124.8
X136.2Y-125.8
X136.2Y-126.8
X136.2Y-127.8
T2
G00X116.48Y-136.68
M15
G01X116.48Y-137.78
M16
G05
G00X116.48Y-141.11
M15
G01X116.48Y-141.71
M16
G05
G00X125.12Y-136.68
M15
G01X125.12Y-137.78
M16
G05
G00X125.12Y-141.11
M15
G01X125.12Y-141.71
M16
G05
T0
M30
