%TF.GenerationSoftware,KiCad,Pcbnew,(6.0.4)*%
%TF.CreationDate,2023-03-17T17:22:40+08:00*%
%TF.ProjectId,ch573beacon,63683537-3362-4656-9163-6f6e2e6b6963,rev?*%
%TF.SameCoordinates,Original*%
%TF.FileFunction,Soldermask,Top*%
%TF.FilePolarity,Negative*%
%FSLAX46Y46*%
G04 Gerber Fmt 4.6, Leading zero omitted, Abs format (unit mm)*
G04 Created by KiCad (PCBNEW (6.0.4)) date 2023-03-17 17:22:40*
%MOMM*%
%LPD*%
G01*
G04 APERTURE LIST*
G04 Aperture macros list*
%AMRoundRect*
0 Rectangle with rounded corners*
0 $1 Rounding radius*
0 $2 $3 $4 $5 $6 $7 $8 $9 X,Y pos of 4 corners*
0 Add a 4 corners polygon primitive as box body*
4,1,4,$2,$3,$4,$5,$6,$7,$8,$9,$2,$3,0*
0 Add four circle primitives for the rounded corners*
1,1,$1+$1,$2,$3*
1,1,$1+$1,$4,$5*
1,1,$1+$1,$6,$7*
1,1,$1+$1,$8,$9*
0 Add four rect primitives between the rounded corners*
20,1,$1+$1,$2,$3,$4,$5,0*
20,1,$1+$1,$4,$5,$6,$7,0*
20,1,$1+$1,$6,$7,$8,$9,0*
20,1,$1+$1,$8,$9,$2,$3,0*%
%AMRotRect*
0 Rectangle, with rotation*
0 The origin of the aperture is its center*
0 $1 length*
0 $2 width*
0 $3 Rotation angle, in degrees counterclockwise*
0 Add horizontal line*
21,1,$1,$2,0,0,$3*%
%AMFreePoly0*
4,1,22,0.550000,-0.750000,0.000000,-0.750000,0.000000,-0.745033,-0.079941,-0.743568,-0.215256,-0.701293,-0.333266,-0.622738,-0.424486,-0.514219,-0.481581,-0.384460,-0.499164,-0.250000,-0.500000,-0.250000,-0.500000,0.250000,-0.499164,0.250000,-0.499963,0.256109,-0.478152,0.396186,-0.417904,0.524511,-0.324060,0.630769,-0.204165,0.706417,-0.067858,0.745374,0.000000,0.744960,0.000000,0.750000,
0.550000,0.750000,0.550000,-0.750000,0.550000,-0.750000,$1*%
%AMFreePoly1*
4,1,20,0.000000,0.744960,0.073905,0.744508,0.209726,0.703889,0.328688,0.626782,0.421226,0.519385,0.479903,0.390333,0.500000,0.250000,0.500000,-0.250000,0.499851,-0.262216,0.476331,-0.402017,0.414519,-0.529596,0.319384,-0.634700,0.198574,-0.708877,0.061801,-0.746166,0.000000,-0.745033,0.000000,-0.750000,-0.550000,-0.750000,-0.550000,0.750000,0.000000,0.750000,0.000000,0.744960,
0.000000,0.744960,$1*%
%AMFreePoly2*
4,1,14,0.318306,0.106694,0.381694,0.043306,0.400000,-0.000888,0.400000,-0.062500,0.381694,-0.106694,0.337500,-0.125000,-0.337500,-0.125000,-0.381694,-0.106694,-0.400000,-0.062500,-0.400000,0.062500,-0.381694,0.106694,-0.337500,0.125000,0.274112,0.125000,0.318306,0.106694,0.318306,0.106694,$1*%
%AMFreePoly3*
4,1,14,0.381694,0.106694,0.400000,0.062500,0.400000,0.000888,0.381694,-0.043306,0.318306,-0.106694,0.274112,-0.125000,-0.337500,-0.125000,-0.381694,-0.106694,-0.400000,-0.062500,-0.400000,0.062500,-0.381694,0.106694,-0.337500,0.125000,0.337500,0.125000,0.381694,0.106694,0.381694,0.106694,$1*%
%AMFreePoly4*
4,1,14,0.106694,0.381694,0.125000,0.337500,0.125000,-0.337500,0.106694,-0.381694,0.062500,-0.400000,-0.062500,-0.400000,-0.106694,-0.381694,-0.125000,-0.337500,-0.125000,0.274112,-0.106694,0.318306,-0.043306,0.381694,0.000888,0.400000,0.062500,0.400000,0.106694,0.381694,0.106694,0.381694,$1*%
%AMFreePoly5*
4,1,14,0.043306,0.381694,0.106694,0.318306,0.125000,0.274112,0.125000,-0.337500,0.106694,-0.381694,0.062500,-0.400000,-0.062500,-0.400000,-0.106694,-0.381694,-0.125000,-0.337500,-0.125000,0.337500,-0.106694,0.381694,-0.062500,0.400000,-0.000888,0.400000,0.043306,0.381694,0.043306,0.381694,$1*%
%AMFreePoly6*
4,1,14,0.381694,0.106694,0.400000,0.062500,0.400000,-0.062500,0.381694,-0.106694,0.337500,-0.125000,-0.274112,-0.125000,-0.318306,-0.106694,-0.381694,-0.043306,-0.400000,0.000888,-0.400000,0.062500,-0.381694,0.106694,-0.337500,0.125000,0.337500,0.125000,0.381694,0.106694,0.381694,0.106694,$1*%
%AMFreePoly7*
4,1,14,0.381694,0.106694,0.400000,0.062500,0.400000,-0.062500,0.381694,-0.106694,0.337500,-0.125000,-0.337500,-0.125000,-0.381694,-0.106694,-0.400000,-0.062500,-0.400000,-0.000888,-0.381694,0.043306,-0.318306,0.106694,-0.274112,0.125000,0.337500,0.125000,0.381694,0.106694,0.381694,0.106694,$1*%
%AMFreePoly8*
4,1,14,0.106694,0.381694,0.125000,0.337500,0.125000,-0.274112,0.106694,-0.318306,0.043306,-0.381694,-0.000888,-0.400000,-0.062500,-0.400000,-0.106694,-0.381694,-0.125000,-0.337500,-0.125000,0.337500,-0.106694,0.381694,-0.062500,0.400000,0.062500,0.400000,0.106694,0.381694,0.106694,0.381694,$1*%
%AMFreePoly9*
4,1,14,0.106694,0.381694,0.125000,0.337500,0.125000,-0.337500,0.106694,-0.381694,0.062500,-0.400000,0.000888,-0.400000,-0.043306,-0.381694,-0.106694,-0.318306,-0.125000,-0.274112,-0.125000,0.337500,-0.106694,0.381694,-0.062500,0.400000,0.062500,0.400000,0.106694,0.381694,0.106694,0.381694,$1*%
%AMFreePoly10*
4,1,6,0.500000,-0.850000,-0.500000,-0.850000,-0.500000,0.550000,-0.200000,0.850000,0.500000,0.850000,0.500000,-0.850000,0.500000,-0.850000,$1*%
G04 Aperture macros list end*
%ADD10RoundRect,0.147500X0.017678X-0.226274X0.226274X-0.017678X-0.017678X0.226274X-0.226274X0.017678X0*%
%ADD11FreePoly0,135.000000*%
%ADD12RotRect,1.000000X1.500000X135.000000*%
%ADD13FreePoly1,135.000000*%
%ADD14O,1.000000X2.100000*%
%ADD15O,1.000000X1.600000*%
%ADD16R,0.600000X1.450000*%
%ADD17R,0.300000X1.450000*%
%ADD18C,0.650000*%
%ADD19R,1.200000X2.000000*%
%ADD20RotRect,0.550000X0.250000X45.000000*%
%ADD21RoundRect,0.135000X-0.035355X0.226274X-0.226274X0.035355X0.035355X-0.226274X0.226274X-0.035355X0*%
%ADD22RoundRect,0.135000X0.035355X-0.226274X0.226274X-0.035355X-0.035355X0.226274X-0.226274X0.035355X0*%
%ADD23R,0.900000X0.800000*%
%ADD24R,1.050000X1.100000*%
%ADD25RoundRect,0.140000X-0.170000X0.140000X-0.170000X-0.140000X0.170000X-0.140000X0.170000X0.140000X0*%
%ADD26RoundRect,0.135000X0.135000X0.185000X-0.135000X0.185000X-0.135000X-0.185000X0.135000X-0.185000X0*%
%ADD27RoundRect,0.140000X-0.219203X-0.021213X-0.021213X-0.219203X0.219203X0.021213X0.021213X0.219203X0*%
%ADD28RoundRect,0.147500X-0.017678X0.226274X-0.226274X0.017678X0.017678X-0.226274X0.226274X-0.017678X0*%
%ADD29RoundRect,0.140000X0.140000X0.170000X-0.140000X0.170000X-0.140000X-0.170000X0.140000X-0.170000X0*%
%ADD30RoundRect,0.135000X0.226274X0.035355X0.035355X0.226274X-0.226274X-0.035355X-0.035355X-0.226274X0*%
%ADD31R,2.000000X0.650000*%
%ADD32FreePoly2,0.000000*%
%ADD33RoundRect,0.062500X-0.337500X-0.062500X0.337500X-0.062500X0.337500X0.062500X-0.337500X0.062500X0*%
%ADD34FreePoly3,0.000000*%
%ADD35FreePoly4,0.000000*%
%ADD36RoundRect,0.062500X-0.062500X-0.337500X0.062500X-0.337500X0.062500X0.337500X-0.062500X0.337500X0*%
%ADD37FreePoly5,0.000000*%
%ADD38FreePoly6,0.000000*%
%ADD39FreePoly7,0.000000*%
%ADD40FreePoly8,0.000000*%
%ADD41FreePoly9,0.000000*%
%ADD42R,2.400000X2.400000*%
%ADD43RoundRect,0.150000X-0.587500X-0.150000X0.587500X-0.150000X0.587500X0.150000X-0.587500X0.150000X0*%
%ADD44RoundRect,0.140000X0.170000X-0.140000X0.170000X0.140000X-0.170000X0.140000X-0.170000X-0.140000X0*%
%ADD45FreePoly10,225.000000*%
%ADD46RotRect,0.550000X0.250000X225.000000*%
%ADD47RoundRect,0.140000X-0.021213X0.219203X-0.219203X0.021213X0.021213X-0.219203X0.219203X-0.021213X0*%
%ADD48RoundRect,0.140000X-0.140000X-0.170000X0.140000X-0.170000X0.140000X0.170000X-0.140000X0.170000X0*%
%ADD49R,0.900000X1.700000*%
%ADD50RoundRect,0.135000X-0.226274X-0.035355X-0.035355X-0.226274X0.226274X0.035355X0.035355X0.226274X0*%
%ADD51RoundRect,0.150000X0.256326X0.468458X-0.468458X-0.256326X-0.256326X-0.468458X0.468458X0.256326X0*%
%ADD52RoundRect,0.135000X-0.135000X-0.185000X0.135000X-0.185000X0.135000X0.185000X-0.135000X0.185000X0*%
G04 APERTURE END LIST*
D10*
%TO.C,D1*%
X132457053Y-131042947D03*
X133142947Y-130357053D03*
%TD*%
D11*
%TO.C,JP1*%
X130035106Y-137899309D03*
D12*
X129115867Y-136980070D03*
D13*
X128196628Y-136060831D03*
%TD*%
D14*
%TO.C,J1*%
X116480000Y-137230000D03*
D15*
X125120000Y-141410000D03*
D14*
X125120000Y-137230000D03*
D15*
X116480000Y-141410000D03*
D16*
X117550000Y-136315000D03*
X118350000Y-136315000D03*
D17*
X119050000Y-136315000D03*
X120050000Y-136315000D03*
X121550000Y-136315000D03*
X122550000Y-136315000D03*
D16*
X123250000Y-136315000D03*
X124050000Y-136315000D03*
X124050000Y-136315000D03*
X123250000Y-136315000D03*
D17*
X122050000Y-136315000D03*
X121050000Y-136315000D03*
X120550000Y-136315000D03*
X119550000Y-136315000D03*
D16*
X118350000Y-136315000D03*
X117550000Y-136315000D03*
D18*
X117910000Y-137760000D03*
X123690000Y-137760000D03*
%TD*%
D19*
%TO.C,AE1*%
X118050000Y-111200000D03*
X123550000Y-111200000D03*
%TD*%
D20*
%TO.C,U1*%
X109996409Y-131158900D03*
X110349963Y-131512453D03*
X110703516Y-131866007D03*
X108758973Y-133810550D03*
X108405419Y-133456997D03*
X108051866Y-133103443D03*
%TD*%
D21*
%TO.C,R3*%
X109378752Y-134621248D03*
X110100000Y-133900000D03*
%TD*%
D22*
%TO.C,R2*%
X111507142Y-132492857D03*
X110785894Y-133214105D03*
%TD*%
D23*
%TO.C,Y2*%
X125300000Y-126550000D03*
X126700000Y-126550000D03*
X126700000Y-125450000D03*
X125300000Y-125450000D03*
%TD*%
D24*
%TO.C,Y1*%
X117205000Y-121090000D03*
X115355000Y-121090000D03*
%TD*%
D25*
%TO.C,C3*%
X124477500Y-131090000D03*
X124477500Y-130130000D03*
%TD*%
D26*
%TO.C,R6*%
X118510000Y-134400000D03*
X117490000Y-134400000D03*
%TD*%
D27*
%TO.C,C6*%
X120460589Y-120260589D03*
X121139411Y-120939411D03*
%TD*%
D28*
%TO.C,D2*%
X130685993Y-132763397D03*
X131371887Y-132077503D03*
%TD*%
D29*
%TO.C,C10*%
X125980000Y-127900000D03*
X125020000Y-127900000D03*
%TD*%
D30*
%TO.C,R5*%
X112199075Y-133204674D03*
X112920323Y-133925922D03*
%TD*%
D31*
%TO.C,L1*%
X115400000Y-124225000D03*
X115400000Y-125575000D03*
%TD*%
D27*
%TO.C,C11*%
X134578822Y-131878822D03*
X133900000Y-131200000D03*
%TD*%
D32*
%TO.C,U3*%
X118850000Y-123750000D03*
D33*
X118850000Y-124200000D03*
X118850000Y-124650000D03*
X118850000Y-125100000D03*
X118850000Y-125550000D03*
X118850000Y-126000000D03*
D34*
X118850000Y-126450000D03*
D35*
X119450000Y-127050000D03*
D36*
X119900000Y-127050000D03*
X120350000Y-127050000D03*
X120800000Y-127050000D03*
X121250000Y-127050000D03*
X121700000Y-127050000D03*
D37*
X122150000Y-127050000D03*
D38*
X122750000Y-126450000D03*
D33*
X122750000Y-126000000D03*
X122750000Y-125550000D03*
X122750000Y-125100000D03*
X122750000Y-124650000D03*
X122750000Y-124200000D03*
D39*
X122750000Y-123750000D03*
D40*
X122150000Y-123150000D03*
D36*
X121700000Y-123150000D03*
X121250000Y-123150000D03*
X120800000Y-123150000D03*
X120350000Y-123150000D03*
X119900000Y-123150000D03*
D41*
X119450000Y-123150000D03*
D42*
X120800000Y-125100000D03*
%TD*%
D43*
%TO.C,U2*%
X128015000Y-131610000D03*
X126140000Y-132560000D03*
X126140000Y-130660000D03*
%TD*%
D30*
%TO.C,R8*%
X131439376Y-136339376D03*
X132160624Y-137060624D03*
%TD*%
D29*
%TO.C,C7*%
X125080000Y-124000000D03*
X124120000Y-124000000D03*
%TD*%
D44*
%TO.C,C4*%
X124477500Y-132130000D03*
X124477500Y-133090000D03*
%TD*%
D45*
%TO.C,U4*%
X111569749Y-135969461D03*
D46*
X111269229Y-137330642D03*
X110915675Y-136977088D03*
X110562122Y-136623535D03*
X110208568Y-136269981D03*
D20*
X111870269Y-134608280D03*
D46*
X112223823Y-134961834D03*
X112577376Y-135315387D03*
X112930930Y-135668941D03*
%TD*%
D22*
%TO.C,R9*%
X129975350Y-133474040D03*
X129254102Y-134195288D03*
%TD*%
D47*
%TO.C,C5*%
X107278644Y-132478714D03*
X107957466Y-131799892D03*
%TD*%
D22*
%TO.C,R1*%
X109392893Y-130364466D03*
X108671645Y-131085714D03*
%TD*%
D48*
%TO.C,C2*%
X115320000Y-126800000D03*
X116280000Y-126800000D03*
%TD*%
D49*
%TO.C,SW1*%
X123000000Y-132000000D03*
X118600000Y-132000000D03*
%TD*%
D48*
%TO.C,C1*%
X115320000Y-123000000D03*
X116280000Y-123000000D03*
%TD*%
D50*
%TO.C,R4*%
X114334536Y-135340136D03*
X113613288Y-134618888D03*
%TD*%
D27*
%TO.C,C8*%
X110212104Y-138005928D03*
X109533282Y-137327106D03*
%TD*%
%TO.C,C9*%
X130668315Y-135595360D03*
X129989493Y-134916538D03*
%TD*%
D51*
%TO.C,U5*%
X132734835Y-135452170D03*
X131391333Y-134108668D03*
X133000001Y-132500000D03*
X133671752Y-133171751D03*
X134343503Y-133843502D03*
%TD*%
D52*
%TO.C,R7*%
X126290000Y-134400000D03*
X127310000Y-134400000D03*
%TD*%
M02*
