%TF.GenerationSoftware,KiCad,Pcbnew,(6.0.4)*%
%TF.CreationDate,2023-03-17T17:22:40+08:00*%
%TF.ProjectId,ch573beacon,63683537-3362-4656-9163-6f6e2e6b6963,rev?*%
%TF.SameCoordinates,Original*%
%TF.FileFunction,Legend,Top*%
%TF.FilePolarity,Positive*%
%FSLAX46Y46*%
G04 Gerber Fmt 4.6, Leading zero omitted, Abs format (unit mm)*
G04 Created by KiCad (PCBNEW (6.0.4)) date 2023-03-17 17:22:40*
%MOMM*%
%LPD*%
G01*
G04 APERTURE LIST*
%ADD10C,0.300000*%
%ADD11C,0.150000*%
%ADD12C,0.100000*%
%ADD13C,0.120000*%
%ADD14C,0.127000*%
G04 APERTURE END LIST*
D10*
X118200000Y-122535714D02*
X118271428Y-122607142D01*
X118200000Y-122678571D01*
X118128571Y-122607142D01*
X118200000Y-122535714D01*
X118200000Y-122678571D01*
D11*
X113903203Y-136040172D02*
G75*
G03*
X113903203Y-136040172I-1J0D01*
G01*
X107232834Y-133285057D02*
G75*
G03*
X107232834Y-133285057I-1J0D01*
G01*
%TO.C,kibuzzard-64142EB1*%
G36*
X119494810Y-133935392D02*
G01*
X122105190Y-133935392D01*
X122105190Y-134864608D01*
X119494810Y-134864608D01*
X119494810Y-134617487D01*
X119660175Y-134617487D01*
X119664937Y-134658763D01*
X119685972Y-134681384D01*
X119730025Y-134688925D01*
X119938781Y-134688925D01*
X119986539Y-134682972D01*
X120029269Y-134665113D01*
X120066972Y-134635347D01*
X120096473Y-134596762D01*
X120114597Y-134552444D01*
X120121344Y-134502394D01*
X120116140Y-134457856D01*
X120100530Y-134416316D01*
X120092195Y-134403969D01*
X120161031Y-134403969D01*
X120166315Y-134462210D01*
X120182165Y-134516284D01*
X120208582Y-134566191D01*
X120245566Y-134611931D01*
X120290090Y-134650130D01*
X120339129Y-134677416D01*
X120392682Y-134693787D01*
X120450750Y-134699244D01*
X120508694Y-134693712D01*
X120561875Y-134677118D01*
X120610294Y-134649461D01*
X120653950Y-134610741D01*
X120690066Y-134564157D01*
X120715862Y-134512911D01*
X120731341Y-134457001D01*
X120735858Y-134403969D01*
X120776187Y-134403969D01*
X120781471Y-134462210D01*
X120797321Y-134516284D01*
X120823738Y-134566191D01*
X120860722Y-134611931D01*
X120905246Y-134650130D01*
X120954285Y-134677416D01*
X121007838Y-134693787D01*
X121065906Y-134699244D01*
X121123850Y-134693712D01*
X121177031Y-134677118D01*
X121225450Y-134649461D01*
X121269106Y-134610741D01*
X121305222Y-134564157D01*
X121331019Y-134512911D01*
X121346497Y-134457001D01*
X121351656Y-134396428D01*
X121346249Y-134336078D01*
X121330027Y-134280838D01*
X121302989Y-134230708D01*
X121265137Y-134185687D01*
X121239071Y-134164256D01*
X121383406Y-134164256D01*
X121387375Y-134197594D01*
X121403250Y-134216247D01*
X121440556Y-134222200D01*
X121592956Y-134222200D01*
X121592956Y-134620662D01*
X121594147Y-134648047D01*
X121601291Y-134668684D01*
X121621928Y-134684956D01*
X121661219Y-134689719D01*
X121700906Y-134684956D01*
X121721941Y-134668684D01*
X121729084Y-134648444D01*
X121730275Y-134621456D01*
X121730275Y-134222200D01*
X121881881Y-134222200D01*
X121922362Y-134215056D01*
X121935856Y-134197991D01*
X121939825Y-134165050D01*
X121935856Y-134131712D01*
X121919981Y-134113059D01*
X121882675Y-134107106D01*
X121441350Y-134107106D01*
X121400869Y-134114250D01*
X121387375Y-134131316D01*
X121383406Y-134164256D01*
X121239071Y-134164256D01*
X121219943Y-134148530D01*
X121170880Y-134121989D01*
X121117946Y-134106064D01*
X121061144Y-134100756D01*
X121007169Y-134106312D01*
X120954781Y-134122981D01*
X120906164Y-134149373D01*
X120863500Y-134184100D01*
X120827781Y-134227657D01*
X120800000Y-134280541D01*
X120782141Y-134340171D01*
X120776187Y-134403969D01*
X120735858Y-134403969D01*
X120736500Y-134396428D01*
X120731093Y-134336078D01*
X120714870Y-134280838D01*
X120687833Y-134230708D01*
X120649981Y-134185687D01*
X120604787Y-134148530D01*
X120555723Y-134121989D01*
X120502790Y-134106064D01*
X120445987Y-134100756D01*
X120392012Y-134106312D01*
X120339625Y-134122981D01*
X120291008Y-134149373D01*
X120248344Y-134184100D01*
X120212625Y-134227657D01*
X120184844Y-134280541D01*
X120166984Y-134340171D01*
X120161031Y-134403969D01*
X120092195Y-134403969D01*
X120074512Y-134377775D01*
X120097134Y-134331936D01*
X120104675Y-134281731D01*
X120098942Y-134235870D01*
X120081744Y-134194595D01*
X120053081Y-134157906D01*
X120017627Y-134129684D01*
X119976881Y-134112751D01*
X119930844Y-134107106D01*
X119730819Y-134107106D01*
X119689941Y-134112464D01*
X119668906Y-134128537D01*
X119661366Y-134149175D01*
X119660175Y-134176956D01*
X119660175Y-134617487D01*
X119494810Y-134617487D01*
X119494810Y-133935392D01*
G37*
G36*
X121117202Y-134252164D02*
G01*
X121165522Y-134284906D01*
X121190878Y-134317185D01*
X121206091Y-134355815D01*
X121211162Y-134400794D01*
X121206135Y-134445685D01*
X121191054Y-134484049D01*
X121165919Y-134515887D01*
X121117897Y-134548034D01*
X121064319Y-134558750D01*
X121010641Y-134547737D01*
X120962322Y-134514697D01*
X120936966Y-134482374D01*
X120921752Y-134444141D01*
X120916681Y-134400000D01*
X120921708Y-134355859D01*
X120936790Y-134317626D01*
X120961925Y-134285303D01*
X121009947Y-134252263D01*
X121063525Y-134241250D01*
X121117202Y-134252164D01*
G37*
G36*
X120502046Y-134252164D02*
G01*
X120550366Y-134284906D01*
X120575722Y-134317185D01*
X120590935Y-134355815D01*
X120596006Y-134400794D01*
X120590979Y-134445685D01*
X120575898Y-134484049D01*
X120550762Y-134515887D01*
X120502741Y-134548034D01*
X120449162Y-134558750D01*
X120395485Y-134547737D01*
X120347166Y-134514697D01*
X120321810Y-134482374D01*
X120306596Y-134444141D01*
X120301525Y-134400000D01*
X120306552Y-134355859D01*
X120321633Y-134317626D01*
X120346769Y-134285303D01*
X120394791Y-134252263D01*
X120448369Y-134241250D01*
X120502046Y-134252164D01*
G37*
G36*
X119951084Y-134255537D02*
G01*
X119964181Y-134283319D01*
X119961800Y-134311894D01*
X119923700Y-134328562D01*
X119874884Y-134339675D01*
X119860200Y-134385316D01*
X119874487Y-134430956D01*
X119917350Y-134442069D01*
X119961800Y-134448419D01*
X119976484Y-134464294D01*
X119980850Y-134494456D01*
X119968348Y-134534938D01*
X119930844Y-134548431D01*
X119800669Y-134548431D01*
X119800669Y-134247600D01*
X119911794Y-134247600D01*
X119951084Y-134255537D01*
G37*
D12*
%TO.C,D1*%
X132079254Y-131470746D02*
G75*
G03*
X132079254Y-131470746I-50000J0D01*
G01*
%TO.C,kibuzzard-64141A9C*%
G36*
X126526580Y-137681390D02*
G01*
X126544821Y-137663149D01*
X126884200Y-137663149D01*
X126886655Y-137709665D01*
X126895706Y-137755477D01*
X126910018Y-137798134D01*
X126928259Y-137835177D01*
X126950079Y-137867521D01*
X126975125Y-137896074D01*
X127004522Y-137920981D01*
X127039390Y-137942378D01*
X127091868Y-137965672D01*
X127123019Y-137973249D01*
X127154730Y-137976896D01*
X127181952Y-137964830D01*
X127201034Y-137921051D01*
X127205103Y-137877974D01*
X127194861Y-137852015D01*
X127156695Y-137836300D01*
X127139295Y-137833493D01*
X127108145Y-137820303D01*
X127070821Y-137791960D01*
X127040653Y-137749444D01*
X127024236Y-137695983D01*
X127030970Y-137631999D01*
X127046476Y-137599656D01*
X127070540Y-137569978D01*
X127100217Y-137545914D01*
X127132560Y-137530409D01*
X127195422Y-137523674D01*
X127250005Y-137540372D01*
X127292521Y-137570260D01*
X127323110Y-137610390D01*
X127336300Y-137652204D01*
X127352576Y-137693177D01*
X127378675Y-137704122D01*
X127422174Y-137702157D01*
X127465110Y-137682793D01*
X127477177Y-137641540D01*
X127471565Y-137615722D01*
X127465952Y-137594394D01*
X127441256Y-137536583D01*
X127420349Y-137503469D01*
X127395793Y-137474844D01*
X127355445Y-137441231D01*
X127308486Y-137414477D01*
X127254916Y-137394583D01*
X127209735Y-137384621D01*
X127163991Y-137381675D01*
X127116915Y-137387357D01*
X127067733Y-137403283D01*
X127019114Y-137430013D01*
X126973722Y-137468109D01*
X126935275Y-137513993D01*
X126907492Y-137564085D01*
X126890444Y-137614950D01*
X126884200Y-137663149D01*
X126544821Y-137663149D01*
X127181390Y-137026580D01*
X127298321Y-137143510D01*
X128756490Y-138601679D01*
X128873420Y-138718610D01*
X128218610Y-139373420D01*
X128101679Y-139256490D01*
X127612629Y-138767440D01*
X127886902Y-138767440D01*
X127891251Y-138792837D01*
X127915526Y-138824128D01*
X128018238Y-138926839D01*
X128063402Y-138964357D01*
X128113022Y-138991034D01*
X128167096Y-139006872D01*
X128225626Y-139011871D01*
X128284137Y-139006153D01*
X128338160Y-138989841D01*
X128387691Y-138962936D01*
X128432732Y-138925436D01*
X128469987Y-138880464D01*
X128496156Y-138831144D01*
X128511240Y-138777473D01*
X128515239Y-138719452D01*
X128508801Y-138661694D01*
X128492578Y-138608812D01*
X128466567Y-138560806D01*
X128430769Y-138517677D01*
X128327496Y-138413281D01*
X128294802Y-138388165D01*
X128268562Y-138384657D01*
X128248638Y-138393918D01*
X128228151Y-138412720D01*
X127916088Y-138724784D01*
X127886902Y-138767440D01*
X127612629Y-138767440D01*
X126643510Y-137798321D01*
X126526580Y-137681390D01*
G37*
G36*
X128330863Y-138616460D02*
G01*
X128363135Y-138664027D01*
X128374642Y-138721416D01*
X128364118Y-138779507D01*
X128330302Y-138829179D01*
X128280559Y-138862645D01*
X128222258Y-138872116D01*
X128165219Y-138860119D01*
X128119266Y-138829179D01*
X128064823Y-138774736D01*
X128276981Y-138562578D01*
X128330863Y-138616460D01*
G37*
D13*
%TO.C,JP1*%
X128833024Y-135283014D02*
X130812923Y-137262913D01*
X127454166Y-135742633D02*
X127878430Y-135318369D01*
X129398710Y-138677126D02*
X127418811Y-136697227D01*
X130812923Y-136980070D02*
X130812923Y-136555806D01*
X130777568Y-138217507D02*
X130353304Y-138641771D01*
X130812923Y-136980070D02*
X131237187Y-136980070D01*
X131237187Y-136980070D02*
X130812923Y-136555806D01*
X127454166Y-135742633D02*
G75*
G03*
X127454166Y-136732583I494975J-494975D01*
G01*
X129363354Y-138641771D02*
G75*
G03*
X130353304Y-138641771I494975J494973D01*
G01*
X130777568Y-138217507D02*
G75*
G03*
X130777568Y-137227557I-494973J494975D01*
G01*
X128868380Y-135318369D02*
G75*
G03*
X127878430Y-135318369I-494975J-494975D01*
G01*
%TO.C,J1*%
X116100000Y-142360000D02*
X116100000Y-144260000D01*
X116100000Y-138460000D02*
X116100000Y-140460000D01*
X125500000Y-142360000D02*
X125500000Y-144260000D01*
X125500000Y-138460000D02*
X125500000Y-140460000D01*
X116100000Y-144260000D02*
X125500000Y-144260000D01*
D14*
%TO.C,U1*%
X109391833Y-133601954D02*
X110494920Y-132498867D01*
X109363549Y-131367496D02*
X108260462Y-132470583D01*
D13*
%TO.C,R3*%
X109579316Y-133883283D02*
X109362035Y-134100564D01*
X110116717Y-134420684D02*
X109899436Y-134637965D01*
%TO.C,R2*%
X110769177Y-132693421D02*
X110986458Y-132476140D01*
X111306578Y-133230822D02*
X111523859Y-133013541D01*
%TO.C,Y2*%
X124650000Y-124850000D02*
X124650000Y-127150000D01*
X124650000Y-127150000D02*
X127350000Y-127150000D01*
%TO.C,Y1*%
X117930000Y-121890000D02*
X117930000Y-120290000D01*
X117930000Y-120290000D02*
X115080000Y-120290000D01*
X115080000Y-121890000D02*
X117930000Y-121890000D01*
%TO.C,C3*%
X124117500Y-130502164D02*
X124117500Y-130717836D01*
X124837500Y-130502164D02*
X124837500Y-130717836D01*
%TO.C,R6*%
X118153641Y-134780000D02*
X117846359Y-134780000D01*
X118153641Y-134020000D02*
X117846359Y-134020000D01*
%TO.C,C6*%
X120469190Y-120778307D02*
X120621693Y-120930810D01*
X120978307Y-120269190D02*
X121130810Y-120421693D01*
D12*
%TO.C,D2*%
X131849686Y-131649704D02*
G75*
G03*
X131849686Y-131649704I-50000J0D01*
G01*
D13*
%TO.C,C10*%
X125607836Y-127540000D02*
X125392164Y-127540000D01*
X125607836Y-128260000D02*
X125392164Y-128260000D01*
%TO.C,R5*%
X112937040Y-133405238D02*
X112719759Y-133187957D01*
X112399639Y-133942639D02*
X112182358Y-133725358D01*
%TO.C,L1*%
X116500000Y-123900000D02*
X116500000Y-125900000D01*
X114300000Y-123900000D02*
X114300000Y-125900000D01*
%TO.C,C11*%
X133908601Y-131717718D02*
X134061104Y-131870221D01*
X134417718Y-131208601D02*
X134570221Y-131361104D01*
%TO.C,U3*%
X119065000Y-127210000D02*
X118690000Y-127210000D01*
X122910000Y-127210000D02*
X122910000Y-126835000D01*
X122910000Y-122990000D02*
X122910000Y-123365000D01*
X122535000Y-122990000D02*
X122910000Y-122990000D01*
X118690000Y-127210000D02*
X118690000Y-126835000D01*
X119065000Y-122990000D02*
X118690000Y-122990000D01*
X122535000Y-127210000D02*
X122910000Y-127210000D01*
%TO.C,U2*%
X127077500Y-133170000D02*
X126427500Y-133170000D01*
X127077500Y-133170000D02*
X127727500Y-133170000D01*
X127077500Y-130050000D02*
X127727500Y-130050000D01*
X127077500Y-130050000D02*
X125402500Y-130050000D01*
%TO.C,R8*%
X131639940Y-137077341D02*
X131422659Y-136860060D01*
X132177341Y-136539940D02*
X131960060Y-136322659D01*
%TO.C,C7*%
X124707836Y-123640000D02*
X124492164Y-123640000D01*
X124707836Y-124360000D02*
X124492164Y-124360000D01*
%TO.C,C4*%
X124837500Y-132717836D02*
X124837500Y-132502164D01*
X124117500Y-132717836D02*
X124117500Y-132502164D01*
%TO.C,U4*%
X111032348Y-134512821D02*
X110113109Y-135432060D01*
X113337516Y-136195735D02*
X112107150Y-137426101D01*
%TO.C,R9*%
X129774786Y-134212005D02*
X129992067Y-133994724D01*
X129237385Y-133674604D02*
X129454666Y-133457323D01*
%TO.C,C5*%
X107948865Y-132317610D02*
X107796362Y-132470113D01*
X107439748Y-131808493D02*
X107287245Y-131960996D01*
%TO.C,R1*%
X108654928Y-130565030D02*
X108872209Y-130347749D01*
X109192329Y-131102431D02*
X109409610Y-130885150D01*
%TO.C,C2*%
X115692164Y-126440000D02*
X115907836Y-126440000D01*
X115692164Y-127160000D02*
X115907836Y-127160000D01*
%TO.C,SW1*%
X122450000Y-133400000D02*
X119150000Y-133400000D01*
X119150000Y-133400000D02*
X119150000Y-133100000D01*
X122450000Y-130900000D02*
X122450000Y-130600000D01*
X119150000Y-130600000D02*
X119150000Y-130900000D01*
X122450000Y-130600000D02*
X119150000Y-130600000D01*
X122450000Y-133100000D02*
X122450000Y-133400000D01*
%TO.C,C1*%
X115692164Y-122640000D02*
X115907836Y-122640000D01*
X115692164Y-123360000D02*
X115907836Y-123360000D01*
%TO.C,R4*%
X114133972Y-134602171D02*
X114351253Y-134819452D01*
X113596571Y-135139572D02*
X113813852Y-135356853D01*
%TO.C,C8*%
X110051000Y-137335707D02*
X110203503Y-137488210D01*
X109541883Y-137844824D02*
X109694386Y-137997327D01*
%TO.C,C9*%
X130507211Y-134925139D02*
X130659714Y-135077642D01*
X129998094Y-135434256D02*
X130150597Y-135586759D01*
%TO.C,U5*%
X133970505Y-135079172D02*
X133404819Y-135644857D01*
X131764331Y-132872998D02*
X132330017Y-132307313D01*
X133970505Y-135079172D02*
X135243297Y-133806379D01*
X131764331Y-132872998D02*
X131198646Y-133438684D01*
%TO.C,R7*%
X126646359Y-134780000D02*
X126953641Y-134780000D01*
X126646359Y-134020000D02*
X126953641Y-134020000D01*
%TD*%
M02*
