%TF.GenerationSoftware,KiCad,Pcbnew,(6.0.4)*%
%TF.CreationDate,2023-03-17T17:22:40+08:00*%
%TF.ProjectId,ch573beacon,63683537-3362-4656-9163-6f6e2e6b6963,rev?*%
%TF.SameCoordinates,Original*%
%TF.FileFunction,Copper,L2,Bot*%
%TF.FilePolarity,Positive*%
%FSLAX46Y46*%
G04 Gerber Fmt 4.6, Leading zero omitted, Abs format (unit mm)*
G04 Created by KiCad (PCBNEW (6.0.4)) date 2023-03-17 17:22:40*
%MOMM*%
%LPD*%
G01*
G04 APERTURE LIST*
%TA.AperFunction,ComponentPad*%
%ADD10O,1.000000X2.100000*%
%TD*%
%TA.AperFunction,ComponentPad*%
%ADD11O,1.000000X1.600000*%
%TD*%
%TA.AperFunction,SMDPad,CuDef*%
%ADD12R,2.540000X3.510000*%
%TD*%
%TA.AperFunction,ViaPad*%
%ADD13C,0.600000*%
%TD*%
%TA.AperFunction,Conductor*%
%ADD14C,0.250000*%
%TD*%
%TA.AperFunction,Conductor*%
%ADD15C,0.400000*%
%TD*%
%TA.AperFunction,Conductor*%
%ADD16C,0.200000*%
%TD*%
G04 APERTURE END LIST*
D10*
%TO.P,J1,S1,SHIELD*%
%TO.N,GND*%
X116480000Y-137230000D03*
D11*
X125120000Y-141410000D03*
D10*
X125120000Y-137230000D03*
D11*
X116480000Y-141410000D03*
%TD*%
D12*
%TO.P,BT1,1,+*%
%TO.N,BAT*%
X135280000Y-126200000D03*
%TO.P,BT1,2,-*%
%TO.N,GND*%
X105920000Y-126200000D03*
%TD*%
D13*
%TO.N,BAT*%
X134200000Y-124800000D03*
X136200000Y-126800000D03*
X134200000Y-125800000D03*
X134200000Y-127800000D03*
X135200000Y-126800000D03*
X135200000Y-127800000D03*
X135200000Y-125800000D03*
X136200000Y-127800000D03*
X134200000Y-126800000D03*
X136200000Y-125800000D03*
X135200000Y-124800000D03*
X136200000Y-124800000D03*
%TO.N,GND*%
X104800000Y-127800000D03*
X105800000Y-127800000D03*
X106800000Y-127800000D03*
X106800000Y-126800000D03*
X105800000Y-126800000D03*
X104800000Y-126800000D03*
X104800000Y-125800000D03*
X105800000Y-125800000D03*
X106800000Y-125800000D03*
X106800000Y-124800000D03*
X105800000Y-124800000D03*
X104800000Y-124800000D03*
X106700000Y-118500000D03*
X109400000Y-118500000D03*
X111700000Y-118500000D03*
X114500000Y-118500000D03*
X117100000Y-118500000D03*
X119500000Y-118500000D03*
X133000000Y-118700000D03*
X130000000Y-118600000D03*
X127000000Y-118500000D03*
X135200000Y-132600000D03*
X126200000Y-131400000D03*
X121600000Y-125800000D03*
X120800000Y-125800000D03*
X120000000Y-125800000D03*
X120000000Y-125000000D03*
X120800000Y-125000000D03*
X121600000Y-125000000D03*
X121600000Y-124200000D03*
X120800000Y-124200000D03*
X120000000Y-124200000D03*
%TO.N,VCC*%
X113530000Y-133340000D03*
X111300000Y-133700000D03*
X115500000Y-127700000D03*
X120500000Y-130500000D03*
%TO.N,DIRECT*%
X130800000Y-131100000D03*
X128700000Y-139600000D03*
%TO.N,GND*%
X120600000Y-117000000D03*
X122500000Y-121500000D03*
X122500000Y-120000000D03*
X122500000Y-118500000D03*
X124500000Y-123000000D03*
X124500000Y-121500000D03*
X124500000Y-120000000D03*
X124500000Y-118500000D03*
X131500000Y-135320000D03*
X133000000Y-117000000D03*
X130000000Y-117000000D03*
X127000000Y-117000000D03*
X124500000Y-117000000D03*
X122500000Y-117000000D03*
X118500000Y-117000000D03*
X116000000Y-117000000D03*
X113500000Y-117000000D03*
X111000000Y-117000000D03*
X109000000Y-117000000D03*
X107000000Y-117000000D03*
%TO.N,D-*%
X121100000Y-137700000D03*
%TO.N,D+*%
X121100500Y-133500000D03*
X121200500Y-129600000D03*
%TO.N,D-*%
X121849488Y-128519520D03*
%TO.N,GND*%
X107971257Y-134330983D03*
X125300000Y-125450000D03*
%TO.N,VCC*%
X109244401Y-131644329D03*
X107385658Y-133786669D03*
%TD*%
D14*
%TO.N,VCC*%
X111500000Y-133500000D02*
X111500000Y-131700000D01*
X111500000Y-131700000D02*
X111555671Y-131644329D01*
X111300000Y-133700000D02*
X111500000Y-133500000D01*
X111555671Y-131644329D02*
X109244401Y-131644329D01*
X115500000Y-127700000D02*
X111555671Y-131644329D01*
X118700000Y-127700000D02*
X120146446Y-129146446D01*
X115500000Y-127700000D02*
X118700000Y-127700000D01*
X120500000Y-130000000D02*
X120500000Y-130500000D01*
X120500001Y-130000000D02*
G75*
G03*
X120146445Y-129146447I-1207101J0D01*
G01*
D15*
%TO.N,DIRECT*%
X126899997Y-136350000D02*
G75*
G02*
X127925304Y-133874695I3500603J0D01*
G01*
X130664647Y-131135358D02*
G75*
G02*
X130750000Y-131100000I85353J-85342D01*
G01*
X127800002Y-138699998D02*
G75*
G02*
X126900000Y-136527207I2172798J2172798D01*
G01*
D14*
%TO.N,VCC*%
X111300015Y-133699959D02*
G75*
G03*
X111299974Y-133699903I-115J-41D01*
G01*
X107385644Y-133643398D02*
G75*
G02*
X107486965Y-133398820I345856J-2D01*
G01*
X111545005Y-133455005D02*
G75*
G02*
X112136482Y-133210000I591495J-591495D01*
G01*
X109240399Y-131645351D02*
G75*
G02*
X109242929Y-131644329I2501J-2549D01*
G01*
X113308076Y-133210010D02*
G75*
G02*
X113465000Y-133275000I24J-221890D01*
G01*
D16*
%TO.N,D-*%
X121100010Y-135018904D02*
G75*
G02*
X121307097Y-134518926I707090J4D01*
G01*
X121800007Y-128604001D02*
G75*
G02*
X121824744Y-128544264I84493J1D01*
G01*
X121657083Y-134168912D02*
G75*
G03*
X121800000Y-133823929I-344983J345012D01*
G01*
X121657097Y-134168926D02*
X121371292Y-134454731D01*
%TO.N,D+*%
X121249999Y-129684500D02*
G75*
G03*
X121225249Y-129624749I-84499J0D01*
G01*
X121175252Y-133425253D02*
G75*
G03*
X121249999Y-133244789I-180452J180453D01*
G01*
D14*
%TO.N,VCC*%
X109244401Y-131644329D02*
X109242929Y-131644329D01*
X107486965Y-133398820D02*
X109240416Y-131645369D01*
X107385658Y-133786669D02*
X107385658Y-133643398D01*
X111300000Y-133699964D02*
X111300000Y-133700000D01*
X113530000Y-133340000D02*
X113465000Y-133275000D01*
X112136482Y-133210000D02*
X113308076Y-133210000D01*
X111545000Y-133455000D02*
X111300000Y-133700000D01*
D15*
%TO.N,DIRECT*%
X128700000Y-139600000D02*
X127800000Y-138700000D01*
X126900000Y-136350000D02*
X126900000Y-136527207D01*
X127925304Y-133874695D02*
X130664644Y-131135355D01*
X130800000Y-131100000D02*
X130750000Y-131100000D01*
D16*
%TO.N,D+*%
X121100500Y-133500000D02*
X121175249Y-133425250D01*
X121249999Y-129684500D02*
X121249999Y-133244789D01*
X121225249Y-129624749D02*
X121200500Y-129600000D01*
%TO.N,D-*%
X121800000Y-128604001D02*
X121800000Y-133823929D01*
X121849488Y-128519520D02*
X121824744Y-128544264D01*
X121307097Y-134518926D02*
X121371292Y-134454731D01*
X121100000Y-135018904D02*
X121100000Y-137700000D01*
%TD*%
%TA.AperFunction,Conductor*%
%TO.N,GND*%
G36*
X133937347Y-116520115D02*
G01*
X133972442Y-116553844D01*
X134334606Y-117071068D01*
X134338013Y-117076197D01*
X134764142Y-117752879D01*
X134767295Y-117758167D01*
X135159882Y-118454895D01*
X135162765Y-118460318D01*
X135520838Y-119175374D01*
X135523460Y-119180945D01*
X135846184Y-119912657D01*
X135848530Y-119918350D01*
X136135115Y-120664932D01*
X136137180Y-120670732D01*
X136386951Y-121430412D01*
X136388731Y-121436306D01*
X136601102Y-122207316D01*
X136602582Y-122213248D01*
X136777042Y-122993737D01*
X136778237Y-122999777D01*
X136914350Y-123787787D01*
X136915250Y-123793877D01*
X136921447Y-123844346D01*
X136909896Y-123914397D01*
X136862306Y-123967082D01*
X136793788Y-123985675D01*
X136752157Y-123977684D01*
X136667718Y-123946029D01*
X136667712Y-123946027D01*
X136660316Y-123943255D01*
X136598134Y-123936500D01*
X133961866Y-123936500D01*
X133899684Y-123943255D01*
X133807845Y-123977684D01*
X133769705Y-123991982D01*
X133725475Y-124000000D01*
X133400000Y-124000000D01*
X133400000Y-124673561D01*
X133399006Y-124689353D01*
X133386463Y-124788640D01*
X133387151Y-124795653D01*
X133399399Y-124920572D01*
X133400000Y-124932867D01*
X133400000Y-125673561D01*
X133399006Y-125689353D01*
X133386463Y-125788640D01*
X133387151Y-125795653D01*
X133399399Y-125920572D01*
X133400000Y-125932867D01*
X133400000Y-126673561D01*
X133399006Y-126689353D01*
X133386463Y-126788640D01*
X133387151Y-126795653D01*
X133399399Y-126920572D01*
X133400000Y-126932867D01*
X133400000Y-127673561D01*
X133399006Y-127689353D01*
X133386463Y-127788640D01*
X133387151Y-127795653D01*
X133399399Y-127920572D01*
X133400000Y-127932867D01*
X133400000Y-128800000D01*
X134900000Y-128800000D01*
X134900000Y-128719611D01*
X134920002Y-128651490D01*
X134973658Y-128604997D01*
X135042665Y-128594718D01*
X135071439Y-128598557D01*
X135175980Y-128612507D01*
X135175984Y-128612507D01*
X135182961Y-128613438D01*
X135189972Y-128612800D01*
X135189976Y-128612800D01*
X135332459Y-128599832D01*
X135363600Y-128596998D01*
X135370302Y-128594820D01*
X135370304Y-128594820D01*
X135529409Y-128543124D01*
X135529412Y-128543123D01*
X135536108Y-128540947D01*
X135635700Y-128481578D01*
X135704455Y-128463878D01*
X135769209Y-128484374D01*
X135833159Y-128526222D01*
X135839763Y-128528678D01*
X135839765Y-128528679D01*
X135996558Y-128586990D01*
X135996560Y-128586990D01*
X136003168Y-128589448D01*
X136086995Y-128600633D01*
X136175980Y-128612507D01*
X136175984Y-128612507D01*
X136182961Y-128613438D01*
X136189972Y-128612800D01*
X136189976Y-128612800D01*
X136332459Y-128599832D01*
X136363600Y-128596998D01*
X136370302Y-128594820D01*
X136370304Y-128594820D01*
X136529409Y-128543124D01*
X136529412Y-128543123D01*
X136536108Y-128540947D01*
X136691912Y-128448069D01*
X136692308Y-128448733D01*
X136714857Y-128436299D01*
X136748547Y-128423669D01*
X136819354Y-128418486D01*
X136881723Y-128452407D01*
X136915852Y-128514662D01*
X136917360Y-128560492D01*
X136841708Y-129060720D01*
X136840639Y-129066784D01*
X136682571Y-129850712D01*
X136681208Y-129856713D01*
X136492977Y-130600598D01*
X136485033Y-130631991D01*
X136483379Y-130637913D01*
X136447550Y-130755106D01*
X136249570Y-131402667D01*
X136247627Y-131408509D01*
X135976731Y-132160951D01*
X135974504Y-132166691D01*
X135667189Y-132904967D01*
X135664685Y-132910592D01*
X135536361Y-133180843D01*
X135335617Y-133603610D01*
X135321660Y-133633003D01*
X135318890Y-133638486D01*
X135198238Y-133863502D01*
X134940990Y-134343266D01*
X134937949Y-134348620D01*
X134526066Y-135034109D01*
X134522769Y-135039304D01*
X134377078Y-135256934D01*
X134077898Y-135703844D01*
X134074349Y-135708875D01*
X133597545Y-136350892D01*
X133593754Y-136355744D01*
X133086164Y-136973695D01*
X133082141Y-136978356D01*
X132544954Y-137570790D01*
X132540708Y-137575248D01*
X131975248Y-138140708D01*
X131970790Y-138144954D01*
X131378356Y-138682141D01*
X131373695Y-138686164D01*
X130755744Y-139193754D01*
X130750892Y-139197545D01*
X130108875Y-139674349D01*
X130103844Y-139677898D01*
X129710420Y-139941273D01*
X129669532Y-139968645D01*
X129601798Y-139989919D01*
X129533315Y-139971196D01*
X129485825Y-139918420D01*
X129474408Y-139848347D01*
X129481651Y-139819198D01*
X129485554Y-139808924D01*
X129485556Y-139808917D01*
X129488055Y-139802338D01*
X129496266Y-139743913D01*
X129512748Y-139626639D01*
X129512748Y-139626636D01*
X129513299Y-139622717D01*
X129513616Y-139600000D01*
X129493397Y-139419745D01*
X129491080Y-139413091D01*
X129436064Y-139255106D01*
X129436062Y-139255103D01*
X129433745Y-139248448D01*
X129337626Y-139094624D01*
X129332664Y-139089627D01*
X129214778Y-138970915D01*
X129214774Y-138970912D01*
X129209815Y-138965918D01*
X129056666Y-138868727D01*
X128949908Y-138830712D01*
X128903078Y-138801108D01*
X128339851Y-138237881D01*
X128328984Y-138225490D01*
X128314547Y-138206675D01*
X128314546Y-138206674D01*
X128309922Y-138200648D01*
X128291791Y-138186122D01*
X128276624Y-138171751D01*
X128248883Y-138140708D01*
X128129028Y-138006591D01*
X128120219Y-137995544D01*
X127974986Y-137790856D01*
X127967469Y-137778893D01*
X127885847Y-137631210D01*
X127846061Y-137559223D01*
X127839932Y-137546496D01*
X127834977Y-137534534D01*
X127743883Y-137314613D01*
X127739222Y-137301292D01*
X127689215Y-137127716D01*
X127669738Y-137060109D01*
X127666594Y-137046334D01*
X127636635Y-136870010D01*
X127624551Y-136798893D01*
X127622970Y-136784857D01*
X127614461Y-136633343D01*
X127611001Y-136571735D01*
X127611881Y-136548233D01*
X127613665Y-136534679D01*
X127609261Y-136494789D01*
X127608500Y-136480962D01*
X127608500Y-136409331D01*
X127609757Y-136391577D01*
X127612966Y-136369030D01*
X127612966Y-136369029D01*
X127613547Y-136364947D01*
X127613704Y-136350000D01*
X127611286Y-136330019D01*
X127610525Y-136308703D01*
X127610957Y-136299924D01*
X127621639Y-136082501D01*
X127622850Y-136070202D01*
X127637556Y-135971067D01*
X127661239Y-135811410D01*
X127663650Y-135799285D01*
X127727221Y-135545499D01*
X127730810Y-135533667D01*
X127818949Y-135287334D01*
X127823681Y-135275910D01*
X127935540Y-135039404D01*
X127941369Y-135028499D01*
X128075873Y-134804094D01*
X128082743Y-134793813D01*
X128238586Y-134583683D01*
X128246430Y-134574124D01*
X128395788Y-134409334D01*
X128412442Y-134393990D01*
X128424656Y-134384618D01*
X128449752Y-134353293D01*
X128458991Y-134342978D01*
X130866849Y-131935120D01*
X130929161Y-131901094D01*
X130944525Y-131898734D01*
X130944564Y-131898730D01*
X130963600Y-131896998D01*
X130970302Y-131894820D01*
X130970304Y-131894820D01*
X131129409Y-131843124D01*
X131129412Y-131843123D01*
X131136108Y-131840947D01*
X131291912Y-131748069D01*
X131423266Y-131622982D01*
X131523643Y-131471902D01*
X131579347Y-131325261D01*
X131585555Y-131308920D01*
X131585556Y-131308918D01*
X131588055Y-131302338D01*
X131590834Y-131282567D01*
X131612748Y-131126639D01*
X131612748Y-131126636D01*
X131613299Y-131122717D01*
X131613616Y-131100000D01*
X131593397Y-130919745D01*
X131588567Y-130905876D01*
X131536064Y-130755106D01*
X131536062Y-130755103D01*
X131533745Y-130748448D01*
X131507253Y-130706051D01*
X131441359Y-130600598D01*
X131437626Y-130594624D01*
X131398768Y-130555494D01*
X131314778Y-130470915D01*
X131314774Y-130470912D01*
X131309815Y-130465918D01*
X131298697Y-130458862D01*
X131250538Y-130428300D01*
X131156666Y-130368727D01*
X131127463Y-130358328D01*
X130992425Y-130310243D01*
X130992420Y-130310242D01*
X130985790Y-130307881D01*
X130978802Y-130307048D01*
X130978799Y-130307047D01*
X130855698Y-130292368D01*
X130805680Y-130286404D01*
X130798677Y-130287140D01*
X130798676Y-130287140D01*
X130632288Y-130304628D01*
X130632286Y-130304629D01*
X130625288Y-130305364D01*
X130453579Y-130363818D01*
X130447575Y-130367512D01*
X130305095Y-130455166D01*
X130305092Y-130455168D01*
X130299088Y-130458862D01*
X130294053Y-130463793D01*
X130294050Y-130463795D01*
X130174525Y-130580843D01*
X130169493Y-130585771D01*
X130135885Y-130637921D01*
X130099272Y-130694733D01*
X130082456Y-130715573D01*
X127466277Y-133331752D01*
X127452835Y-133343417D01*
X127431320Y-133359571D01*
X127420640Y-133370029D01*
X127414021Y-133378471D01*
X127407773Y-133385838D01*
X127176252Y-133638498D01*
X127173173Y-133641858D01*
X127171497Y-133644043D01*
X127171493Y-133644047D01*
X126951095Y-133931273D01*
X126951087Y-133931285D01*
X126949423Y-133933453D01*
X126751940Y-134243439D01*
X126582225Y-134569458D01*
X126581176Y-134571991D01*
X126581173Y-134571997D01*
X126566278Y-134607957D01*
X126441570Y-134909027D01*
X126440744Y-134911647D01*
X126440741Y-134911655D01*
X126371547Y-135131111D01*
X126331046Y-135259564D01*
X126251494Y-135618399D01*
X126251136Y-135621119D01*
X126251135Y-135621124D01*
X126235598Y-135739138D01*
X126203519Y-135982802D01*
X126199949Y-136064575D01*
X126176995Y-136131758D01*
X126121363Y-136175867D01*
X126050715Y-136182896D01*
X125987482Y-136150614D01*
X125969122Y-136128809D01*
X125959750Y-136114704D01*
X125842603Y-135971067D01*
X125833959Y-135962363D01*
X125691144Y-135844216D01*
X125680973Y-135837356D01*
X125517924Y-135749196D01*
X125506619Y-135744444D01*
X125391308Y-135708750D01*
X125377205Y-135708544D01*
X125374000Y-135715299D01*
X125374000Y-138737924D01*
X125377973Y-138751455D01*
X125385768Y-138752575D01*
X125493521Y-138720862D01*
X125504889Y-138716269D01*
X125669154Y-138630393D01*
X125679415Y-138623679D01*
X125823873Y-138507532D01*
X125832632Y-138498954D01*
X125951778Y-138356961D01*
X125958708Y-138346841D01*
X126048002Y-138184415D01*
X126052834Y-138173142D01*
X126108880Y-137996462D01*
X126111430Y-137984468D01*
X126127607Y-137840239D01*
X126128000Y-137833215D01*
X126128000Y-137726434D01*
X126148002Y-137658313D01*
X126201658Y-137611820D01*
X126271932Y-137601716D01*
X126336512Y-137631210D01*
X126374168Y-137688545D01*
X126409304Y-137799981D01*
X126416157Y-137821717D01*
X126542515Y-138126772D01*
X126543784Y-138129210D01*
X126543786Y-138129214D01*
X126634459Y-138303393D01*
X126694980Y-138419653D01*
X126872391Y-138698132D01*
X126874060Y-138700307D01*
X127003293Y-138868727D01*
X127073397Y-138960089D01*
X127075248Y-138962109D01*
X127267798Y-139172241D01*
X127275659Y-139181709D01*
X127284877Y-139193985D01*
X127295335Y-139204665D01*
X127298577Y-139207207D01*
X127298578Y-139207208D01*
X127323452Y-139226712D01*
X127334799Y-139236770D01*
X127901532Y-139803503D01*
X127931995Y-139852825D01*
X127961418Y-139941273D01*
X128055380Y-140096424D01*
X128181382Y-140226902D01*
X128333159Y-140326222D01*
X128339763Y-140328678D01*
X128339765Y-140328679D01*
X128496558Y-140386990D01*
X128496560Y-140386990D01*
X128503168Y-140389448D01*
X128510151Y-140390380D01*
X128510156Y-140390381D01*
X128530754Y-140393129D01*
X128535058Y-140393703D01*
X128599935Y-140422538D01*
X128638923Y-140481871D01*
X128639645Y-140552864D01*
X128601870Y-140612977D01*
X128577935Y-140629640D01*
X128038486Y-140918890D01*
X128033016Y-140921654D01*
X127747566Y-141057195D01*
X127310592Y-141264685D01*
X127304967Y-141267189D01*
X126566691Y-141574504D01*
X126560951Y-141576731D01*
X126471847Y-141608811D01*
X126247852Y-141689454D01*
X126176987Y-141693710D01*
X126122662Y-141666128D01*
X126122135Y-141665671D01*
X126114452Y-141664000D01*
X124130115Y-141664000D01*
X124114876Y-141668475D01*
X124113671Y-141669865D01*
X124112000Y-141677548D01*
X124112000Y-141756657D01*
X124112301Y-141762805D01*
X124125812Y-141900603D01*
X124128195Y-141912638D01*
X124181767Y-142090076D01*
X124186443Y-142101421D01*
X124200299Y-142127481D01*
X124214618Y-142197018D01*
X124189070Y-142263259D01*
X124131764Y-142305171D01*
X124113956Y-142310146D01*
X123915465Y-142350169D01*
X123466784Y-142440639D01*
X123460720Y-142441708D01*
X122670022Y-142561289D01*
X122663914Y-142562061D01*
X122266102Y-142602470D01*
X121868273Y-142642880D01*
X121862169Y-142643350D01*
X121063544Y-142685203D01*
X121057412Y-142685375D01*
X120652091Y-142686790D01*
X120257701Y-142688166D01*
X120251545Y-142688037D01*
X119452677Y-142651761D01*
X119446535Y-142651332D01*
X119245832Y-142632360D01*
X118650355Y-142576071D01*
X118644272Y-142575346D01*
X117852721Y-142461282D01*
X117846666Y-142460257D01*
X117448194Y-142382802D01*
X117385141Y-142350169D01*
X117349741Y-142288628D01*
X117353231Y-142217717D01*
X117361822Y-142198416D01*
X117408002Y-142114415D01*
X117412834Y-142103142D01*
X117468880Y-141926462D01*
X117471430Y-141914468D01*
X117487607Y-141770239D01*
X117488000Y-141763215D01*
X117488000Y-141682115D01*
X117483525Y-141666876D01*
X117482135Y-141665671D01*
X117474452Y-141664000D01*
X115490115Y-141664000D01*
X115474876Y-141668475D01*
X115473671Y-141669865D01*
X115472000Y-141677548D01*
X115472000Y-141695489D01*
X115451998Y-141763610D01*
X115398342Y-141810103D01*
X115328068Y-141820207D01*
X115304148Y-141814335D01*
X114746563Y-141617978D01*
X114740807Y-141615792D01*
X114000376Y-141313628D01*
X113994734Y-141311163D01*
X113623138Y-141137885D01*
X115472000Y-141137885D01*
X115476475Y-141153124D01*
X115477865Y-141154329D01*
X115485548Y-141156000D01*
X116207885Y-141156000D01*
X116223124Y-141151525D01*
X116224329Y-141150135D01*
X116226000Y-141142452D01*
X116226000Y-141137885D01*
X116734000Y-141137885D01*
X116738475Y-141153124D01*
X116739865Y-141154329D01*
X116747548Y-141156000D01*
X117469885Y-141156000D01*
X117485124Y-141151525D01*
X117486329Y-141150135D01*
X117488000Y-141142452D01*
X117488000Y-141137885D01*
X124112000Y-141137885D01*
X124116475Y-141153124D01*
X124117865Y-141154329D01*
X124125548Y-141156000D01*
X124847885Y-141156000D01*
X124863124Y-141151525D01*
X124864329Y-141150135D01*
X124866000Y-141142452D01*
X124866000Y-141137885D01*
X125374000Y-141137885D01*
X125378475Y-141153124D01*
X125379865Y-141154329D01*
X125387548Y-141156000D01*
X126109885Y-141156000D01*
X126125124Y-141151525D01*
X126126329Y-141150135D01*
X126128000Y-141142452D01*
X126128000Y-141063343D01*
X126127699Y-141057195D01*
X126114188Y-140919397D01*
X126111805Y-140907362D01*
X126058233Y-140729924D01*
X126053559Y-140718584D01*
X125966540Y-140554923D01*
X125959751Y-140544706D01*
X125842603Y-140401067D01*
X125833959Y-140392363D01*
X125691144Y-140274216D01*
X125680973Y-140267356D01*
X125517924Y-140179196D01*
X125506619Y-140174444D01*
X125391308Y-140138750D01*
X125377205Y-140138544D01*
X125374000Y-140145299D01*
X125374000Y-141137885D01*
X124866000Y-141137885D01*
X124866000Y-140152076D01*
X124862027Y-140138545D01*
X124854232Y-140137425D01*
X124746479Y-140169138D01*
X124735111Y-140173731D01*
X124570846Y-140259607D01*
X124560585Y-140266321D01*
X124416127Y-140382468D01*
X124407368Y-140391046D01*
X124288222Y-140533039D01*
X124281292Y-140543159D01*
X124191998Y-140705585D01*
X124187166Y-140716858D01*
X124131120Y-140893538D01*
X124128570Y-140905532D01*
X124112393Y-141049761D01*
X124112000Y-141056785D01*
X124112000Y-141137885D01*
X117488000Y-141137885D01*
X117488000Y-141063343D01*
X117487699Y-141057195D01*
X117474188Y-140919397D01*
X117471805Y-140907362D01*
X117418233Y-140729924D01*
X117413559Y-140718584D01*
X117326540Y-140554923D01*
X117319751Y-140544706D01*
X117202603Y-140401067D01*
X117193959Y-140392363D01*
X117051144Y-140274216D01*
X117040973Y-140267356D01*
X116877924Y-140179196D01*
X116866619Y-140174444D01*
X116751308Y-140138750D01*
X116737205Y-140138544D01*
X116734000Y-140145299D01*
X116734000Y-141137885D01*
X116226000Y-141137885D01*
X116226000Y-140152076D01*
X116222027Y-140138545D01*
X116214232Y-140137425D01*
X116106479Y-140169138D01*
X116095111Y-140173731D01*
X115930846Y-140259607D01*
X115920585Y-140266321D01*
X115776127Y-140382468D01*
X115767368Y-140391046D01*
X115648222Y-140533039D01*
X115641292Y-140543159D01*
X115551998Y-140705585D01*
X115547166Y-140716858D01*
X115491120Y-140893538D01*
X115488570Y-140905532D01*
X115472393Y-141049761D01*
X115472000Y-141056785D01*
X115472000Y-141137885D01*
X113623138Y-141137885D01*
X113269954Y-140973193D01*
X113264439Y-140970455D01*
X112786723Y-140718584D01*
X112557029Y-140597480D01*
X112551675Y-140594487D01*
X111863333Y-140187402D01*
X111858112Y-140184140D01*
X111190471Y-139743913D01*
X111185415Y-139740399D01*
X110540074Y-139268080D01*
X110535230Y-139264349D01*
X109999733Y-138830712D01*
X109913741Y-138761077D01*
X109909052Y-138757087D01*
X109561208Y-138446079D01*
X109312869Y-138224038D01*
X109308403Y-138219843D01*
X108909687Y-137826657D01*
X115472000Y-137826657D01*
X115472301Y-137832805D01*
X115485812Y-137970603D01*
X115488195Y-137982638D01*
X115541767Y-138160076D01*
X115546441Y-138171416D01*
X115633460Y-138335077D01*
X115640249Y-138345294D01*
X115757397Y-138488933D01*
X115766041Y-138497637D01*
X115908856Y-138615784D01*
X115919027Y-138622644D01*
X116082076Y-138710804D01*
X116093381Y-138715556D01*
X116208692Y-138751250D01*
X116222795Y-138751456D01*
X116226000Y-138744701D01*
X116226000Y-138737924D01*
X116734000Y-138737924D01*
X116737973Y-138751455D01*
X116745768Y-138752575D01*
X116853521Y-138720862D01*
X116864889Y-138716269D01*
X117029154Y-138630393D01*
X117039415Y-138623679D01*
X117183873Y-138507532D01*
X117192632Y-138498954D01*
X117237000Y-138446079D01*
X117296110Y-138406752D01*
X117367098Y-138405626D01*
X117410048Y-138426972D01*
X117475678Y-138477150D01*
X117552130Y-138512800D01*
X117633631Y-138550805D01*
X117633634Y-138550806D01*
X117639808Y-138553685D01*
X117646456Y-138555171D01*
X117646459Y-138555172D01*
X117752421Y-138578857D01*
X117816543Y-138593190D01*
X117822088Y-138593500D01*
X117955244Y-138593500D01*
X118090037Y-138578857D01*
X118208190Y-138539094D01*
X118255204Y-138523272D01*
X118255206Y-138523271D01*
X118261675Y-138521094D01*
X118416905Y-138427823D01*
X118421862Y-138423135D01*
X118421865Y-138423133D01*
X118543527Y-138308082D01*
X118543529Y-138308080D01*
X118548485Y-138303393D01*
X118552317Y-138297755D01*
X118552320Y-138297751D01*
X118646442Y-138159255D01*
X118650277Y-138153612D01*
X118717530Y-137985466D01*
X118718644Y-137978738D01*
X118718645Y-137978734D01*
X118745993Y-137813539D01*
X118745993Y-137813536D01*
X118747108Y-137806802D01*
X118746273Y-137790856D01*
X118737987Y-137632766D01*
X118737630Y-137625953D01*
X118714304Y-137541266D01*
X118691352Y-137457941D01*
X118689539Y-137451359D01*
X118605078Y-137291164D01*
X118600673Y-137285951D01*
X118600670Y-137285947D01*
X118492594Y-137158057D01*
X118492590Y-137158053D01*
X118488187Y-137152843D01*
X118482762Y-137148695D01*
X118349743Y-137046994D01*
X118349739Y-137046991D01*
X118344322Y-137042850D01*
X118239186Y-136993825D01*
X118186369Y-136969195D01*
X118186366Y-136969194D01*
X118180192Y-136966315D01*
X118173544Y-136964829D01*
X118173541Y-136964828D01*
X118008494Y-136927936D01*
X118008495Y-136927936D01*
X118003457Y-136926810D01*
X117997912Y-136926500D01*
X117864756Y-136926500D01*
X117729963Y-136941143D01*
X117723499Y-136943318D01*
X117723496Y-136943319D01*
X117666645Y-136962452D01*
X117655167Y-136966315D01*
X117654189Y-136966644D01*
X117583247Y-136969414D01*
X117522068Y-136933391D01*
X117490077Y-136870010D01*
X117488000Y-136847225D01*
X117488000Y-136633343D01*
X117487699Y-136627195D01*
X117474188Y-136489397D01*
X117471805Y-136477362D01*
X117418233Y-136299924D01*
X117413559Y-136288584D01*
X117326540Y-136124923D01*
X117319751Y-136114706D01*
X117202603Y-135971067D01*
X117193959Y-135962363D01*
X117051144Y-135844216D01*
X117040973Y-135837356D01*
X116877924Y-135749196D01*
X116866619Y-135744444D01*
X116751308Y-135708750D01*
X116737205Y-135708544D01*
X116734000Y-135715299D01*
X116734000Y-138737924D01*
X116226000Y-138737924D01*
X116226000Y-137502115D01*
X116221525Y-137486876D01*
X116220135Y-137485671D01*
X116212452Y-137484000D01*
X115490115Y-137484000D01*
X115474876Y-137488475D01*
X115473671Y-137489865D01*
X115472000Y-137497548D01*
X115472000Y-137826657D01*
X108909687Y-137826657D01*
X108738976Y-137658313D01*
X108734711Y-137653896D01*
X108713851Y-137631210D01*
X108312389Y-137194624D01*
X108193423Y-137065249D01*
X108189367Y-137060617D01*
X108103774Y-136957885D01*
X115472000Y-136957885D01*
X115476475Y-136973124D01*
X115477865Y-136974329D01*
X115485548Y-136976000D01*
X116207885Y-136976000D01*
X116223124Y-136971525D01*
X116224329Y-136970135D01*
X116226000Y-136962452D01*
X116226000Y-135722076D01*
X116222027Y-135708545D01*
X116214232Y-135707425D01*
X116106479Y-135739138D01*
X116095111Y-135743731D01*
X115930846Y-135829607D01*
X115920585Y-135836321D01*
X115776127Y-135952468D01*
X115767368Y-135961046D01*
X115648222Y-136103039D01*
X115641292Y-136113159D01*
X115551998Y-136275585D01*
X115547166Y-136286858D01*
X115491120Y-136463538D01*
X115488570Y-136475532D01*
X115472393Y-136619761D01*
X115472000Y-136626785D01*
X115472000Y-136957885D01*
X108103774Y-136957885D01*
X107677458Y-136446204D01*
X107673634Y-136441379D01*
X107192357Y-135802703D01*
X107188785Y-135797714D01*
X106739262Y-135136260D01*
X106735944Y-135131111D01*
X106696841Y-135067049D01*
X106413542Y-134602932D01*
X106319297Y-134448534D01*
X106316218Y-134443202D01*
X105952071Y-133775309D01*
X106572121Y-133775309D01*
X106589821Y-133955829D01*
X106647076Y-134127942D01*
X106650723Y-134133964D01*
X106650724Y-134133966D01*
X106710356Y-134232430D01*
X106741038Y-134283093D01*
X106745927Y-134288156D01*
X106745928Y-134288157D01*
X106761015Y-134303780D01*
X106867040Y-134413571D01*
X106891963Y-134429880D01*
X106991202Y-134494820D01*
X107018817Y-134512891D01*
X107025421Y-134515347D01*
X107025423Y-134515348D01*
X107182216Y-134573659D01*
X107182218Y-134573659D01*
X107188826Y-134576117D01*
X107272653Y-134587302D01*
X107361638Y-134599176D01*
X107361642Y-134599176D01*
X107368619Y-134600107D01*
X107375630Y-134599469D01*
X107375634Y-134599469D01*
X107518117Y-134586501D01*
X107549258Y-134583667D01*
X107555960Y-134581489D01*
X107555962Y-134581489D01*
X107715067Y-134529793D01*
X107715070Y-134529792D01*
X107721766Y-134527616D01*
X107863372Y-134443202D01*
X107871518Y-134438346D01*
X107871520Y-134438345D01*
X107877570Y-134434738D01*
X108008924Y-134309651D01*
X108109301Y-134158571D01*
X108153859Y-134041273D01*
X108171213Y-133995589D01*
X108171214Y-133995587D01*
X108173713Y-133989007D01*
X108174693Y-133982035D01*
X108198406Y-133813308D01*
X108198406Y-133813305D01*
X108198957Y-133809386D01*
X108199274Y-133786669D01*
X108185433Y-133663275D01*
X108197717Y-133593351D01*
X108221553Y-133560136D01*
X109301338Y-132480351D01*
X109363650Y-132446325D01*
X109379013Y-132443965D01*
X109408001Y-132441327D01*
X109414703Y-132439149D01*
X109414705Y-132439149D01*
X109573810Y-132387453D01*
X109573813Y-132387452D01*
X109580509Y-132385276D01*
X109730941Y-132295600D01*
X109795459Y-132277829D01*
X110740500Y-132277829D01*
X110808621Y-132297831D01*
X110855114Y-132351487D01*
X110866500Y-132403829D01*
X110866500Y-132946971D01*
X110846498Y-133015092D01*
X110810383Y-133050502D01*
X110810641Y-133050832D01*
X110807711Y-133053121D01*
X110806518Y-133054291D01*
X110799088Y-133058862D01*
X110732254Y-133124311D01*
X110688923Y-133166744D01*
X110669493Y-133185771D01*
X110571235Y-133338238D01*
X110568826Y-133344858D01*
X110568824Y-133344861D01*
X110539690Y-133424907D01*
X110509197Y-133508685D01*
X110486463Y-133688640D01*
X110504163Y-133869160D01*
X110561418Y-134041273D01*
X110565065Y-134047295D01*
X110565066Y-134047297D01*
X110635628Y-134163809D01*
X110655380Y-134196424D01*
X110781382Y-134326902D01*
X110831530Y-134359718D01*
X110906082Y-134408503D01*
X110933159Y-134426222D01*
X110939763Y-134428678D01*
X110939765Y-134428679D01*
X111096558Y-134486990D01*
X111096560Y-134486990D01*
X111103168Y-134489448D01*
X111186995Y-134500633D01*
X111275980Y-134512507D01*
X111275984Y-134512507D01*
X111282961Y-134513438D01*
X111289972Y-134512800D01*
X111289976Y-134512800D01*
X111432459Y-134499832D01*
X111463600Y-134496998D01*
X111470302Y-134494820D01*
X111470304Y-134494820D01*
X111629409Y-134443124D01*
X111629412Y-134443123D01*
X111636108Y-134440947D01*
X111791912Y-134348069D01*
X111923266Y-134222982D01*
X112023643Y-134071902D01*
X112079539Y-133924756D01*
X112122428Y-133868178D01*
X112189097Y-133843769D01*
X112197327Y-133843500D01*
X112838730Y-133843500D01*
X112906851Y-133863502D01*
X112929363Y-133881969D01*
X113011382Y-133966902D01*
X113063223Y-134000826D01*
X113134239Y-134047297D01*
X113163159Y-134066222D01*
X113169763Y-134068678D01*
X113169765Y-134068679D01*
X113326558Y-134126990D01*
X113326560Y-134126990D01*
X113333168Y-134129448D01*
X113416995Y-134140633D01*
X113505980Y-134152507D01*
X113505984Y-134152507D01*
X113512961Y-134153438D01*
X113519972Y-134152800D01*
X113519976Y-134152800D01*
X113662459Y-134139832D01*
X113693600Y-134136998D01*
X113700302Y-134134820D01*
X113700304Y-134134820D01*
X113859409Y-134083124D01*
X113859412Y-134083123D01*
X113866108Y-134080947D01*
X113962513Y-134023478D01*
X114015860Y-133991677D01*
X114015862Y-133991676D01*
X114021912Y-133988069D01*
X114153266Y-133862982D01*
X114253643Y-133711902D01*
X114318055Y-133542338D01*
X114340050Y-133385838D01*
X114342748Y-133366639D01*
X114342748Y-133366636D01*
X114343299Y-133362717D01*
X114343616Y-133340000D01*
X114323397Y-133159745D01*
X114317335Y-133142338D01*
X114266064Y-132995106D01*
X114266062Y-132995103D01*
X114263745Y-132988448D01*
X114209866Y-132902223D01*
X114171359Y-132840598D01*
X114167626Y-132834624D01*
X114099142Y-132765660D01*
X114044778Y-132710915D01*
X114044774Y-132710912D01*
X114039815Y-132705918D01*
X113886666Y-132608727D01*
X113857463Y-132598328D01*
X113722425Y-132550243D01*
X113722420Y-132550242D01*
X113715790Y-132547881D01*
X113708802Y-132547048D01*
X113708799Y-132547047D01*
X113585698Y-132532368D01*
X113535680Y-132526404D01*
X113528677Y-132527140D01*
X113528676Y-132527140D01*
X113362288Y-132544628D01*
X113362286Y-132544629D01*
X113355288Y-132545364D01*
X113283572Y-132569778D01*
X113242967Y-132576500D01*
X112259500Y-132576500D01*
X112191379Y-132556498D01*
X112144886Y-132502842D01*
X112133500Y-132450500D01*
X112133500Y-132014594D01*
X112153502Y-131946473D01*
X112170405Y-131925499D01*
X115560177Y-128535727D01*
X115622489Y-128501701D01*
X115637837Y-128499343D01*
X115663600Y-128496998D01*
X115670302Y-128494820D01*
X115670304Y-128494820D01*
X115829409Y-128443124D01*
X115829412Y-128443123D01*
X115836108Y-128440947D01*
X115986540Y-128351271D01*
X116051058Y-128333500D01*
X118385406Y-128333500D01*
X118453527Y-128353502D01*
X118474501Y-128370405D01*
X119663125Y-129559029D01*
X119673992Y-129571420D01*
X119685879Y-129586912D01*
X119685881Y-129586914D01*
X119690505Y-129592940D01*
X119700059Y-129600594D01*
X119718676Y-129618991D01*
X119756234Y-129664755D01*
X119761958Y-129671730D01*
X119775680Y-129692266D01*
X119816987Y-129769545D01*
X119826439Y-129792366D01*
X119851877Y-129876223D01*
X119856696Y-129900449D01*
X119861378Y-129947986D01*
X119848150Y-130017739D01*
X119841897Y-130028591D01*
X119771235Y-130138238D01*
X119709197Y-130308685D01*
X119686463Y-130488640D01*
X119704163Y-130669160D01*
X119761418Y-130841273D01*
X119765065Y-130847295D01*
X119765066Y-130847297D01*
X119841754Y-130973924D01*
X119855380Y-130996424D01*
X119860269Y-131001487D01*
X119860270Y-131001488D01*
X119868729Y-131010247D01*
X119981382Y-131126902D01*
X120133159Y-131226222D01*
X120139763Y-131228678D01*
X120139765Y-131228679D01*
X120296558Y-131286990D01*
X120296560Y-131286990D01*
X120303168Y-131289448D01*
X120374823Y-131299009D01*
X120475980Y-131312507D01*
X120475984Y-131312507D01*
X120482961Y-131313438D01*
X120489972Y-131312800D01*
X120489976Y-131312800D01*
X120504079Y-131311516D01*
X120573732Y-131325261D01*
X120624897Y-131374482D01*
X120641499Y-131436997D01*
X120641499Y-132765660D01*
X120621497Y-132833781D01*
X120599089Y-132858352D01*
X120599588Y-132858862D01*
X120475865Y-132980021D01*
X120469993Y-132985771D01*
X120371735Y-133138238D01*
X120369326Y-133144858D01*
X120369324Y-133144861D01*
X120356228Y-133180843D01*
X120309697Y-133308685D01*
X120286963Y-133488640D01*
X120304663Y-133669160D01*
X120361918Y-133841273D01*
X120365565Y-133847295D01*
X120365566Y-133847297D01*
X120447166Y-133982035D01*
X120455880Y-133996424D01*
X120581882Y-134126902D01*
X120587774Y-134130757D01*
X120587778Y-134130761D01*
X120641714Y-134166055D01*
X120687763Y-134220092D01*
X120697286Y-134290447D01*
X120677489Y-134341484D01*
X120667599Y-134356286D01*
X120667592Y-134356298D01*
X120665307Y-134359718D01*
X120589036Y-134514386D01*
X120587711Y-134518291D01*
X120587708Y-134518297D01*
X120552377Y-134622385D01*
X120533606Y-134677687D01*
X120499965Y-134846825D01*
X120492211Y-134965145D01*
X120491374Y-134977909D01*
X120490566Y-134986114D01*
X120486249Y-135018907D01*
X120487327Y-135027095D01*
X120490422Y-135050602D01*
X120491500Y-135067049D01*
X120491500Y-137115164D01*
X120471498Y-137183285D01*
X120470188Y-137185090D01*
X120469493Y-137185771D01*
X120467894Y-137188253D01*
X120467892Y-137188255D01*
X120404934Y-137285947D01*
X120371235Y-137338238D01*
X120368826Y-137344858D01*
X120368824Y-137344861D01*
X120311606Y-137502066D01*
X120309197Y-137508685D01*
X120286463Y-137688640D01*
X120304163Y-137869160D01*
X120361418Y-138041273D01*
X120365065Y-138047295D01*
X120365066Y-138047297D01*
X120445172Y-138179568D01*
X120455380Y-138196424D01*
X120460269Y-138201487D01*
X120460270Y-138201488D01*
X120480846Y-138222795D01*
X120581382Y-138326902D01*
X120587278Y-138330760D01*
X120726666Y-138421973D01*
X120733159Y-138426222D01*
X120739763Y-138428678D01*
X120739765Y-138428679D01*
X120896558Y-138486990D01*
X120896560Y-138486990D01*
X120903168Y-138489448D01*
X120974411Y-138498954D01*
X121075980Y-138512507D01*
X121075984Y-138512507D01*
X121082961Y-138513438D01*
X121089972Y-138512800D01*
X121089976Y-138512800D01*
X121242108Y-138498954D01*
X121263600Y-138496998D01*
X121270302Y-138494820D01*
X121270304Y-138494820D01*
X121429409Y-138443124D01*
X121429412Y-138443123D01*
X121436108Y-138440947D01*
X121559892Y-138367157D01*
X121585860Y-138351677D01*
X121585862Y-138351676D01*
X121591912Y-138348069D01*
X121723266Y-138222982D01*
X121823643Y-138071902D01*
X121888055Y-137902338D01*
X121890178Y-137887234D01*
X121912748Y-137726639D01*
X121912748Y-137726636D01*
X121913299Y-137722717D01*
X121913432Y-137713198D01*
X122852892Y-137713198D01*
X122853249Y-137720015D01*
X122853249Y-137720019D01*
X122858579Y-137821717D01*
X122862370Y-137894047D01*
X122864181Y-137900620D01*
X122864181Y-137900623D01*
X122886772Y-137982638D01*
X122910461Y-138068641D01*
X122994922Y-138228836D01*
X122999327Y-138234049D01*
X122999330Y-138234053D01*
X123107406Y-138361943D01*
X123107410Y-138361947D01*
X123111813Y-138367157D01*
X123117237Y-138371304D01*
X123117238Y-138371305D01*
X123250257Y-138473006D01*
X123250261Y-138473009D01*
X123255678Y-138477150D01*
X123332130Y-138512800D01*
X123413631Y-138550805D01*
X123413634Y-138550806D01*
X123419808Y-138553685D01*
X123426456Y-138555171D01*
X123426459Y-138555172D01*
X123532421Y-138578857D01*
X123596543Y-138593190D01*
X123602088Y-138593500D01*
X123735244Y-138593500D01*
X123870037Y-138578857D01*
X123988190Y-138539094D01*
X124035204Y-138523272D01*
X124035206Y-138523271D01*
X124041675Y-138521094D01*
X124193651Y-138429778D01*
X124193654Y-138429777D01*
X124196905Y-138427823D01*
X124197255Y-138428406D01*
X124258917Y-138404935D01*
X124328391Y-138419561D01*
X124366391Y-138450915D01*
X124397397Y-138488933D01*
X124406041Y-138497637D01*
X124548856Y-138615784D01*
X124559027Y-138622644D01*
X124722076Y-138710804D01*
X124733381Y-138715556D01*
X124848692Y-138751250D01*
X124862795Y-138751456D01*
X124866000Y-138744701D01*
X124866000Y-135722076D01*
X124862027Y-135708545D01*
X124854232Y-135707425D01*
X124746479Y-135739138D01*
X124735111Y-135743731D01*
X124570846Y-135829607D01*
X124560585Y-135836321D01*
X124416127Y-135952468D01*
X124407368Y-135961046D01*
X124288222Y-136103039D01*
X124281292Y-136113159D01*
X124191998Y-136275585D01*
X124187166Y-136286858D01*
X124131120Y-136463538D01*
X124128570Y-136475532D01*
X124112393Y-136619761D01*
X124112000Y-136626785D01*
X124112000Y-136842974D01*
X124091998Y-136911095D01*
X124038342Y-136957588D01*
X123968068Y-136967692D01*
X123958514Y-136965939D01*
X123788506Y-136927938D01*
X123788499Y-136927937D01*
X123783457Y-136926810D01*
X123777912Y-136926500D01*
X123644756Y-136926500D01*
X123509963Y-136941143D01*
X123406157Y-136976078D01*
X123344796Y-136996728D01*
X123344794Y-136996729D01*
X123338325Y-136998906D01*
X123183095Y-137092177D01*
X123178138Y-137096865D01*
X123178135Y-137096867D01*
X123056473Y-137211918D01*
X123051515Y-137216607D01*
X123047683Y-137222245D01*
X123047680Y-137222249D01*
X122996740Y-137297205D01*
X122949723Y-137366388D01*
X122882470Y-137534534D01*
X122881356Y-137541262D01*
X122881355Y-137541266D01*
X122855729Y-137696062D01*
X122852892Y-137713198D01*
X121913432Y-137713198D01*
X121913616Y-137700000D01*
X121893397Y-137519745D01*
X121891080Y-137513091D01*
X121836064Y-137355106D01*
X121836062Y-137355103D01*
X121833745Y-137348448D01*
X121737626Y-137194624D01*
X121735215Y-137192196D01*
X121709117Y-137127716D01*
X121708500Y-137115263D01*
X121708500Y-135067045D01*
X121709578Y-135050599D01*
X121713751Y-135018901D01*
X121716414Y-135019252D01*
X121732675Y-134963870D01*
X121741355Y-134953099D01*
X121741097Y-134952901D01*
X121760556Y-134927540D01*
X121771426Y-134915146D01*
X122053316Y-134633256D01*
X122065701Y-134622394D01*
X122091066Y-134602932D01*
X122110880Y-134577111D01*
X122115008Y-134572015D01*
X122201819Y-134470381D01*
X122254381Y-134384618D01*
X122289405Y-134327470D01*
X122289406Y-134327468D01*
X122291996Y-134323242D01*
X122295614Y-134314510D01*
X122356148Y-134168388D01*
X122358045Y-134163809D01*
X122365981Y-134130761D01*
X122397183Y-134000826D01*
X122397184Y-134000821D01*
X122398340Y-133996006D01*
X122408864Y-133862391D01*
X122409553Y-133855838D01*
X122412673Y-133832153D01*
X122412673Y-133832150D01*
X122413751Y-133823965D01*
X122409577Y-133792246D01*
X122408500Y-133775807D01*
X122408500Y-129157694D01*
X122428502Y-129089573D01*
X122447608Y-129066448D01*
X122453623Y-129060720D01*
X122472754Y-129042502D01*
X122573131Y-128891422D01*
X122624326Y-128756652D01*
X122635043Y-128728440D01*
X122635044Y-128728438D01*
X122637543Y-128721858D01*
X122639483Y-128708053D01*
X122662236Y-128546159D01*
X122662236Y-128546156D01*
X122662787Y-128542237D01*
X122662976Y-128528679D01*
X122663049Y-128523482D01*
X122663049Y-128523477D01*
X122663104Y-128519520D01*
X122642885Y-128339265D01*
X122640568Y-128332611D01*
X122585552Y-128174626D01*
X122585550Y-128174623D01*
X122583233Y-128167968D01*
X122523645Y-128072606D01*
X122490847Y-128020118D01*
X122487114Y-128014144D01*
X122482152Y-128009147D01*
X122364266Y-127890435D01*
X122364262Y-127890432D01*
X122359303Y-127885438D01*
X122348185Y-127878382D01*
X122300026Y-127847820D01*
X122206154Y-127788247D01*
X122176951Y-127777848D01*
X122041913Y-127729763D01*
X122041908Y-127729762D01*
X122035278Y-127727401D01*
X122028290Y-127726568D01*
X122028287Y-127726567D01*
X121905186Y-127711888D01*
X121855168Y-127705924D01*
X121848165Y-127706660D01*
X121848164Y-127706660D01*
X121681776Y-127724148D01*
X121681774Y-127724149D01*
X121674776Y-127724884D01*
X121503067Y-127783338D01*
X121440597Y-127821770D01*
X121354583Y-127874686D01*
X121354580Y-127874688D01*
X121348576Y-127878382D01*
X121343541Y-127883313D01*
X121343538Y-127883315D01*
X121224719Y-127999672D01*
X121218981Y-128005291D01*
X121120723Y-128157758D01*
X121118314Y-128164378D01*
X121118312Y-128164381D01*
X121062304Y-128318261D01*
X121058685Y-128328205D01*
X121035951Y-128508160D01*
X121051947Y-128671305D01*
X121053651Y-128688680D01*
X121051635Y-128688878D01*
X121046983Y-128749769D01*
X121004161Y-128806397D01*
X120969748Y-128824441D01*
X120854079Y-128863818D01*
X120853454Y-128861981D01*
X120792822Y-128871408D01*
X120727908Y-128842656D01*
X120714592Y-128829571D01*
X120655771Y-128762499D01*
X120654368Y-128760798D01*
X120650988Y-128755084D01*
X120639931Y-128744027D01*
X120634295Y-128738010D01*
X120621569Y-128723499D01*
X120615542Y-128716076D01*
X120609518Y-128708053D01*
X120609511Y-128708045D01*
X120607037Y-128704750D01*
X120597686Y-128695202D01*
X120573184Y-128675990D01*
X120561835Y-128665931D01*
X119203652Y-127307747D01*
X119196112Y-127299461D01*
X119192000Y-127292982D01*
X119142348Y-127246356D01*
X119139507Y-127243602D01*
X119119770Y-127223865D01*
X119116573Y-127221385D01*
X119107551Y-127213680D01*
X119081100Y-127188841D01*
X119075321Y-127183414D01*
X119068375Y-127179595D01*
X119068372Y-127179593D01*
X119057566Y-127173652D01*
X119041047Y-127162801D01*
X119040583Y-127162441D01*
X119025041Y-127150386D01*
X119017772Y-127147241D01*
X119017768Y-127147238D01*
X118984463Y-127132826D01*
X118973813Y-127127609D01*
X118935060Y-127106305D01*
X118915437Y-127101267D01*
X118896734Y-127094863D01*
X118885420Y-127089967D01*
X118885419Y-127089967D01*
X118878145Y-127086819D01*
X118870322Y-127085580D01*
X118870312Y-127085577D01*
X118834476Y-127079901D01*
X118822856Y-127077495D01*
X118787711Y-127068472D01*
X118787710Y-127068472D01*
X118780030Y-127066500D01*
X118759776Y-127066500D01*
X118740065Y-127064949D01*
X118727886Y-127063020D01*
X118720057Y-127061780D01*
X118712165Y-127062526D01*
X118676039Y-127065941D01*
X118664181Y-127066500D01*
X116047338Y-127066500D01*
X115979824Y-127046885D01*
X115946583Y-127025790D01*
X115856666Y-126968727D01*
X115827463Y-126958328D01*
X115692425Y-126910243D01*
X115692420Y-126910242D01*
X115685790Y-126907881D01*
X115678802Y-126907048D01*
X115678799Y-126907047D01*
X115555698Y-126892368D01*
X115505680Y-126886404D01*
X115498677Y-126887140D01*
X115498676Y-126887140D01*
X115332288Y-126904628D01*
X115332286Y-126904629D01*
X115325288Y-126905364D01*
X115153579Y-126963818D01*
X115147575Y-126967512D01*
X115005095Y-127055166D01*
X115005092Y-127055168D01*
X114999088Y-127058862D01*
X114994053Y-127063793D01*
X114994050Y-127063795D01*
X114874525Y-127180843D01*
X114869493Y-127185771D01*
X114771235Y-127338238D01*
X114709197Y-127508685D01*
X114702137Y-127564569D01*
X114673757Y-127629642D01*
X114666227Y-127637869D01*
X111330171Y-130973924D01*
X111267859Y-131007950D01*
X111241076Y-131010829D01*
X109791739Y-131010829D01*
X109724225Y-130991214D01*
X109690984Y-130970119D01*
X109601067Y-130913056D01*
X109571864Y-130902657D01*
X109436826Y-130854572D01*
X109436821Y-130854571D01*
X109430191Y-130852210D01*
X109423203Y-130851377D01*
X109423200Y-130851376D01*
X109282426Y-130834590D01*
X109250081Y-130830733D01*
X109243078Y-130831469D01*
X109243077Y-130831469D01*
X109076689Y-130848957D01*
X109076687Y-130848958D01*
X109069689Y-130849693D01*
X108897980Y-130908147D01*
X108891976Y-130911841D01*
X108749496Y-130999495D01*
X108749493Y-130999497D01*
X108743489Y-131003191D01*
X108738454Y-131008122D01*
X108738451Y-131008124D01*
X108735689Y-131010829D01*
X108613894Y-131130100D01*
X108515636Y-131282567D01*
X108513227Y-131289187D01*
X108513225Y-131289190D01*
X108459428Y-131436997D01*
X108453598Y-131453014D01*
X108446964Y-131505526D01*
X108418584Y-131570599D01*
X108411054Y-131578826D01*
X107077216Y-132912664D01*
X107063771Y-132924331D01*
X107045314Y-132938186D01*
X107035764Y-132947536D01*
X107033221Y-132950779D01*
X107012766Y-132976861D01*
X107008341Y-132980021D01*
X107009385Y-132980913D01*
X106939995Y-133062143D01*
X106939990Y-133062150D01*
X106936778Y-133065910D01*
X106934189Y-133070135D01*
X106900973Y-133124330D01*
X106881707Y-133148507D01*
X106755151Y-133272440D01*
X106656893Y-133424907D01*
X106654484Y-133431527D01*
X106654482Y-133431530D01*
X106607673Y-133560136D01*
X106594855Y-133595354D01*
X106572121Y-133775309D01*
X105952071Y-133775309D01*
X105933400Y-133741064D01*
X105930586Y-133735588D01*
X105582538Y-133015615D01*
X105579994Y-133010008D01*
X105267519Y-132273863D01*
X105265253Y-132268139D01*
X105073904Y-131748069D01*
X104989115Y-131517619D01*
X104987132Y-131511794D01*
X104985167Y-131505522D01*
X104747991Y-130748692D01*
X104746294Y-130742775D01*
X104544713Y-129968894D01*
X104543307Y-129962899D01*
X104379775Y-129180113D01*
X104378663Y-129174058D01*
X104281459Y-128560335D01*
X104290559Y-128489924D01*
X104336281Y-128435610D01*
X104404109Y-128414637D01*
X104450137Y-128422642D01*
X104532391Y-128453478D01*
X104547649Y-128457105D01*
X104598514Y-128462631D01*
X104605328Y-128463000D01*
X105647885Y-128463000D01*
X105663124Y-128458525D01*
X105664329Y-128457135D01*
X105666000Y-128449452D01*
X105666000Y-128444884D01*
X106174000Y-128444884D01*
X106178475Y-128460123D01*
X106179865Y-128461328D01*
X106187548Y-128462999D01*
X107234669Y-128462999D01*
X107241490Y-128462629D01*
X107292352Y-128457105D01*
X107307604Y-128453479D01*
X107428054Y-128408324D01*
X107443649Y-128399786D01*
X107545724Y-128323285D01*
X107558285Y-128310724D01*
X107634786Y-128208649D01*
X107643324Y-128193054D01*
X107688478Y-128072606D01*
X107692105Y-128057351D01*
X107697631Y-128006486D01*
X107698000Y-127999672D01*
X107698000Y-126472115D01*
X107693525Y-126456876D01*
X107692135Y-126455671D01*
X107684452Y-126454000D01*
X106192115Y-126454000D01*
X106176876Y-126458475D01*
X106175671Y-126459865D01*
X106174000Y-126467548D01*
X106174000Y-128444884D01*
X105666000Y-128444884D01*
X105666000Y-125927885D01*
X106174000Y-125927885D01*
X106178475Y-125943124D01*
X106179865Y-125944329D01*
X106187548Y-125946000D01*
X107679884Y-125946000D01*
X107695123Y-125941525D01*
X107696328Y-125940135D01*
X107697999Y-125932452D01*
X107697999Y-124400331D01*
X107697629Y-124393510D01*
X107692105Y-124342648D01*
X107688479Y-124327396D01*
X107643324Y-124206946D01*
X107634786Y-124191351D01*
X107558285Y-124089276D01*
X107545724Y-124076715D01*
X107443649Y-124000214D01*
X107428054Y-123991676D01*
X107307606Y-123946522D01*
X107292351Y-123942895D01*
X107241486Y-123937369D01*
X107234672Y-123937000D01*
X106192115Y-123937000D01*
X106176876Y-123941475D01*
X106175671Y-123942865D01*
X106174000Y-123950548D01*
X106174000Y-125927885D01*
X105666000Y-125927885D01*
X105666000Y-123955116D01*
X105661525Y-123939877D01*
X105660135Y-123938672D01*
X105652452Y-123937001D01*
X104605331Y-123937001D01*
X104598510Y-123937371D01*
X104547648Y-123942895D01*
X104532397Y-123946521D01*
X104451255Y-123976940D01*
X104380448Y-123982123D01*
X104318079Y-123948203D01*
X104283950Y-123885947D01*
X104282191Y-123841858D01*
X104319933Y-123566331D01*
X104320917Y-123560253D01*
X104468025Y-122774190D01*
X104469305Y-122768168D01*
X104654635Y-121990234D01*
X104656208Y-121984281D01*
X104734965Y-121713199D01*
X104879319Y-121216328D01*
X104881180Y-121210462D01*
X105141538Y-120454330D01*
X105143684Y-120448560D01*
X105440662Y-119706058D01*
X105443087Y-119700399D01*
X105775991Y-118973275D01*
X105778690Y-118967741D01*
X106146715Y-118257751D01*
X106149681Y-118252356D01*
X106551948Y-117561190D01*
X106555175Y-117555945D01*
X106990718Y-116885268D01*
X106994196Y-116880188D01*
X107040734Y-116815661D01*
X107230043Y-116553178D01*
X107286113Y-116509629D01*
X107332231Y-116500884D01*
X112137123Y-116500745D01*
X133869225Y-116500115D01*
X133937347Y-116520115D01*
G37*
%TD.AperFunction*%
%TD*%
M02*
